<svg xmlns="http://www.w3.org/2000/svg" width="102" height="100" viewBox="0 0 102 100" fill="none"><path d="M79.2695 39.6152L50.4234 66.486L41.4257 74.8673L32.4672 66.3681L4.26953 39.6152H11.1926H79.2695Z" fill="#F8B326"></path><path d="M79.2683 39.6153C77.7224 39.6153 29.5191 39.6153 11.1914 39.6153V31.5383H18.1145H86.1914V74.2306V82.3076H79.2683V39.6153Z" fill="white"></path><path d="M93.1178 89.2307C95.0309 89.2307 96.5793 90.7815 96.5793 92.6923C96.5793 94.603 95.0309 96.1538 93.1178 96.1538C91.2072 96.1538 89.6562 94.603 89.6562 92.6923C89.6562 90.7815 91.2072 89.2307 93.1178 89.2307Z" fill="white"></path><path d="M7.73017 7.30762C10.9171 7.30762 13.4994 9.88992 13.4994 13.0768C13.4994 16.2638 10.9171 18.8461 7.73017 18.8461C4.54555 18.8461 1.96094 16.2638 1.96094 13.0768C1.96094 9.88992 4.54555 7.30762 7.73017 7.30762Z" fill="white"></path><path d="M100.039 15.3845V66.1538H93.116V23.4614H25.0391V15.3845H100.039Z" fill="white"></path><path d="M93.1172 66.1537V74.2307H86.1941V31.5383H18.1172V23.4614H25.0403H93.1172V66.1537Z" fill="#F8B326"></path><path d="M79.2695 90.3846H4.26953L32.4672 66.3684L41.4257 74.8676L50.4234 66.4861L79.2695 90.3846Z" fill="#F8B326"></path><path d="M79.2719 82.3075V90.3845L50.4258 66.486L79.2719 39.6152V82.3075Z" fill="#F8B326"></path><path d="M4.26953 39.6152L32.4672 66.3683L4.26953 90.3845V39.6152Z" fill="#F8B326"></path><path d="M97.1566 76.5383C98.1142 76.5383 98.8873 77.3137 98.8873 78.2691C98.8873 79.2245 98.1142 79.9999 97.1566 79.9999C96.2012 79.9999 95.4258 79.2245 95.4258 78.2691C95.4258 77.3137 96.2012 76.5383 97.1566 76.5383Z" fill="#0F0F0F"></path><path d="M90.2308 0.384521C91.1885 0.384521 91.9615 1.15991 91.9615 2.11529C91.9615 3.07068 91.1885 3.84606 90.2308 3.84606C89.2754 3.84606 88.5 3.07068 88.5 2.11529C88.5 1.15991 89.2754 0.384521 90.2308 0.384521Z" fill="#0F0F0F"></path><path d="M75.2308 96.1538C76.1885 96.1538 76.9615 96.9292 76.9615 97.8846C76.9615 98.84 76.1885 99.6153 75.2308 99.6153C74.2754 99.6153 73.5 98.84 73.5 97.8846C73.5 96.9292 74.2754 96.1538 75.2308 96.1538Z" fill="#0F0F0F"></path><path d="M62.5394 6.15381C63.4971 6.15381 64.2701 6.92919 64.2701 7.88458C64.2701 8.83996 63.4971 9.61535 62.5394 9.61535C61.584 9.61535 60.8086 8.83996 60.8086 7.88458C60.8086 6.92919 61.584 6.15381 62.5394 6.15381Z" fill="#0F0F0F"></path><path d="M23.3089 2.69214C24.2666 2.69214 25.0397 3.46752 25.0397 4.42291C25.0397 5.37829 24.2666 6.15368 23.3089 6.15368C22.3535 6.15368 21.5781 5.37829 21.5781 4.42291C21.5781 3.46752 22.3535 2.69214 23.3089 2.69214Z" fill="#0F0F0F"></path><path d="M22.1566 95C23.1142 95 23.8873 95.7754 23.8873 96.7308C23.8873 97.6862 23.1142 98.4615 22.1566 98.4615C21.2012 98.4615 20.4258 97.6862 20.4258 96.7308C20.4258 95.7754 21.2012 95 22.1566 95Z" fill="#0F0F0F"></path><path d="M2.53936 25.769C3.49706 25.769 4.27013 26.5444 4.27013 27.4998C4.27013 28.4552 3.49706 29.2306 2.53936 29.2306C1.58398 29.2306 0.808594 28.4552 0.808594 27.4998C0.808594 26.5444 1.58398 25.769 2.53936 25.769Z" fill="#0F0F0F"></path><path d="M79.2688 91.5385C79.0095 91.5385 78.7487 91.4515 78.5334 91.2733L49.6872 67.3749C49.1966 66.9682 49.1283 66.2409 49.5349 65.7503C49.9413 65.2596 50.6687 65.1913 51.1595 65.5977L80.0057 89.4962C80.4965 89.9028 80.5646 90.6302 80.158 91.1208C79.9298 91.3961 79.6007 91.5385 79.2688 91.5385Z" fill="#0F0F0F"></path><path d="M4.27171 91.5383C3.94517 91.5383 3.62094 91.4006 3.39271 91.1326C2.9794 90.6473 3.03778 89.9193 3.52286 89.506L31.7206 65.4898C32.2059 65.0765 32.9339 65.1351 33.3472 65.62C33.7606 66.1053 33.7022 66.8333 33.2171 67.2466L5.0194 91.2628C4.80225 91.4479 4.53617 91.5383 4.27171 91.5383Z" fill="#0F0F0F"></path><path d="M41.4271 76.0214C41.1412 76.0214 40.8555 75.9157 40.6331 75.7046L3.47691 40.4523C3.13445 40.1271 3.02437 39.6261 3.1993 39.1877C3.37422 38.7492 3.79884 38.4614 4.27099 38.4614H79.271C79.7452 38.4614 80.171 38.7515 80.3445 39.1927C80.5183 39.634 80.4045 40.1363 80.0574 40.4597L42.2136 75.7117C41.9921 75.9183 41.7096 76.0214 41.4271 76.0214ZM7.16368 40.7691L41.4345 73.2838L76.3395 40.7691H7.16368Z" fill="#0F0F0F"></path><path d="M79.271 91.5383H4.27103C3.63388 91.5383 3.11719 91.0219 3.11719 90.3845V39.6153C3.11719 38.9781 3.63388 38.4614 4.27103 38.4614C4.90819 38.4614 5.42488 38.9781 5.42488 39.6153V89.2307H78.1172V39.6153C78.1172 38.9781 78.6337 38.4614 79.271 38.4614C79.9084 38.4614 80.4249 38.9781 80.4249 39.6153V90.3845C80.4249 91.0219 79.9084 91.5383 79.271 91.5383Z" fill="#0F0F0F"></path><path d="M65.4225 86.9229H18.1148C17.4776 86.9229 16.9609 86.4065 16.9609 85.7691C16.9609 85.1317 17.4776 84.6152 18.1148 84.6152H65.4225C66.0599 84.6152 66.5763 85.1317 66.5763 85.7691C66.5763 86.4065 66.0599 86.9229 65.4225 86.9229Z" fill="#0F0F0F"></path><path d="M57.3468 83.4615H26.1929C25.5558 83.4615 25.0391 82.945 25.0391 82.3077C25.0391 81.6703 25.5558 81.1538 26.1929 81.1538H57.3468C57.9841 81.1538 58.5006 81.6703 58.5006 82.3077C58.5006 82.945 57.9841 83.4615 57.3468 83.4615Z" fill="#0F0F0F"></path><path d="M50.4225 79.9998H33.1148C32.4776 79.9998 31.9609 79.4834 31.9609 78.846C31.9609 78.2086 32.4776 77.6921 33.1148 77.6921H50.4225C51.0599 77.6921 51.5763 78.2086 51.5763 78.846C51.5763 79.4834 51.0599 79.9998 50.4225 79.9998Z" fill="#0F0F0F"></path><path d="M86.1929 83.4614H79.2698C78.6324 83.4614 78.116 82.945 78.116 82.3076C78.116 81.6702 78.6324 81.1538 79.2698 81.1538H85.0391V32.6922H12.3468V39.6153C12.3468 40.2524 11.8301 40.7691 11.1929 40.7691C10.5558 40.7691 10.0391 40.2524 10.0391 39.6153V31.5384C10.0391 30.9012 10.5558 30.3845 11.1929 30.3845H86.1929C86.8303 30.3845 87.3468 30.9012 87.3468 31.5384V82.3076C87.3468 82.945 86.8303 83.4614 86.1929 83.4614Z" fill="#0F0F0F"></path><path d="M93.1148 75.3845H86.1917C85.5543 75.3845 85.0379 74.8681 85.0379 74.2307C85.0379 73.5933 85.5543 73.0768 86.1917 73.0768H91.9609V24.6153H19.2686V31.5384C19.2686 32.1755 18.7519 32.6922 18.1148 32.6922C17.4776 32.6922 16.9609 32.1755 16.9609 31.5384V23.4615C16.9609 22.8243 17.4776 22.3076 18.1148 22.3076H93.1148C93.7522 22.3076 94.2686 22.8243 94.2686 23.4615V74.2307C94.2686 74.8681 93.7522 75.3845 93.1148 75.3845Z" fill="#0F0F0F"></path><path d="M100.037 67.3076H93.1136C92.4762 67.3076 91.9597 66.7912 91.9597 66.1538C91.9597 65.5164 92.4762 64.9999 93.1136 64.9999H98.8828V16.5384H26.1905V23.4615C26.1905 24.0986 25.6738 24.6153 25.0367 24.6153C24.3995 24.6153 23.8828 24.0986 23.8828 23.4615V15.3846C23.8828 14.7474 24.3995 14.2307 25.0367 14.2307H100.037C100.674 14.2307 101.191 14.7474 101.191 15.3846V66.1538C101.191 66.7912 100.674 67.3076 100.037 67.3076Z" fill="#0F0F0F"></path><path d="M7.73167 20C3.91429 20 0.808594 16.8943 0.808594 13.0769C0.808594 9.2595 3.91429 6.15381 7.73167 6.15381C11.5491 6.15381 14.6547 9.2595 14.6547 13.0769C14.6547 16.8943 11.5491 20 7.73167 20ZM7.73167 8.4615C5.18675 8.4615 3.11629 10.532 3.11629 13.0769C3.11629 15.6218 5.18675 17.6923 7.73167 17.6923C10.2766 17.6923 12.3471 15.6218 12.3471 13.0769C12.3471 10.532 10.2766 8.4615 7.73167 8.4615Z" fill="#0F0F0F"></path><path d="M93.1154 97.3077C90.5707 97.3077 88.5 95.2372 88.5 92.6923C88.5 90.1474 90.5707 88.0769 93.1154 88.0769C95.6601 88.0769 97.7308 90.1474 97.7308 92.6923C97.7308 95.2372 95.6601 97.3077 93.1154 97.3077ZM93.1154 90.3846C91.8429 90.3846 90.8077 91.4198 90.8077 92.6923C90.8077 93.9648 91.8429 95 93.1154 95C94.3878 95 95.4231 93.9648 95.4231 92.6923C95.4231 91.4198 94.3878 90.3846 93.1154 90.3846Z" fill="#0F0F0F"></path><path d="M79.2695 39.6152L50.4234 66.486L41.4257 74.8673L32.4672 66.3681L4.26953 39.6152H11.1926H79.2695Z" fill="#F8B326"></path><path d="M79.2683 39.6153C77.7224 39.6153 29.5191 39.6153 11.1914 39.6153V31.5383H18.1145H86.1914V74.2306V82.3076H79.2683V39.6153Z" fill="white"></path><path d="M93.1178 89.2307C95.0309 89.2307 96.5793 90.7815 96.5793 92.6923C96.5793 94.603 95.0309 96.1538 93.1178 96.1538C91.2072 96.1538 89.6562 94.603 89.6562 92.6923C89.6562 90.7815 91.2072 89.2307 93.1178 89.2307Z" fill="white"></path><path d="M7.73017 7.30762C10.9171 7.30762 13.4994 9.88992 13.4994 13.0768C13.4994 16.2638 10.9171 18.8461 7.73017 18.8461C4.54555 18.8461 1.96094 16.2638 1.96094 13.0768C1.96094 9.88992 4.54555 7.30762 7.73017 7.30762Z" fill="white"></path><path d="M100.039 15.3845V66.1538H93.116V23.4614H25.0391V15.3845H100.039Z" fill="white"></path><path d="M93.1172 66.1537V74.2307H86.1941V31.5383H18.1172V23.4614H25.0403H93.1172V66.1537Z" fill="#F8B326"></path><path d="M79.2695 90.3846H4.26953L32.4672 66.3684L41.4257 74.8676L50.4234 66.4861L79.2695 90.3846Z" fill="#F8B326"></path><path d="M79.2719 82.3075V90.3845L50.4258 66.486L79.2719 39.6152V82.3075Z" fill="#F8B326"></path><path d="M4.26953 39.6152L32.4672 66.3683L4.26953 90.3845V39.6152Z" fill="#F8B326"></path><path d="M97.1566 76.5383C98.1142 76.5383 98.8873 77.3137 98.8873 78.2691C98.8873 79.2245 98.1142 79.9999 97.1566 79.9999C96.2012 79.9999 95.4258 79.2245 95.4258 78.2691C95.4258 77.3137 96.2012 76.5383 97.1566 76.5383Z" fill="#0F0F0F"></path><path d="M90.2308 0.384521C91.1885 0.384521 91.9615 1.15991 91.9615 2.11529C91.9615 3.07068 91.1885 3.84606 90.2308 3.84606C89.2754 3.84606 88.5 3.07068 88.5 2.11529C88.5 1.15991 89.2754 0.384521 90.2308 0.384521Z" fill="#0F0F0F"></path><path d="M75.2308 96.1538C76.1885 96.1538 76.9615 96.9292 76.9615 97.8846C76.9615 98.84 76.1885 99.6153 75.2308 99.6153C74.2754 99.6153 73.5 98.84 73.5 97.8846C73.5 96.9292 74.2754 96.1538 75.2308 96.1538Z" fill="#0F0F0F"></path><path d="M62.5394 6.15381C63.4971 6.15381 64.2701 6.92919 64.2701 7.88458C64.2701 8.83996 63.4971 9.61535 62.5394 9.61535C61.584 9.61535 60.8086 8.83996 60.8086 7.88458C60.8086 6.92919 61.584 6.15381 62.5394 6.15381Z" fill="#0F0F0F"></path><path d="M23.3089 2.69214C24.2666 2.69214 25.0397 3.46752 25.0397 4.42291C25.0397 5.37829 24.2666 6.15368 23.3089 6.15368C22.3535 6.15368 21.5781 5.37829 21.5781 4.42291C21.5781 3.46752 22.3535 2.69214 23.3089 2.69214Z" fill="#0F0F0F"></path><path d="M22.1566 95C23.1142 95 23.8873 95.7754 23.8873 96.7308C23.8873 97.6862 23.1142 98.4615 22.1566 98.4615C21.2012 98.4615 20.4258 97.6862 20.4258 96.7308C20.4258 95.7754 21.2012 95 22.1566 95Z" fill="#0F0F0F"></path><path d="M2.53936 25.769C3.49706 25.769 4.27013 26.5444 4.27013 27.4998C4.27013 28.4552 3.49706 29.2306 2.53936 29.2306C1.58398 29.2306 0.808594 28.4552 0.808594 27.4998C0.808594 26.5444 1.58398 25.769 2.53936 25.769Z" fill="#0F0F0F"></path><path d="M79.2688 91.5385C79.0095 91.5385 78.7487 91.4515 78.5334 91.2733L49.6872 67.3749C49.1966 66.9682 49.1283 66.2409 49.5349 65.7503C49.9413 65.2596 50.6687 65.1913 51.1595 65.5977L80.0057 89.4962C80.4965 89.9028 80.5646 90.6302 80.158 91.1208C79.9298 91.3961 79.6007 91.5385 79.2688 91.5385Z" fill="#0F0F0F"></path><path d="M4.27171 91.5383C3.94517 91.5383 3.62094 91.4006 3.39271 91.1326C2.9794 90.6473 3.03778 89.9193 3.52286 89.506L31.7206 65.4898C32.2059 65.0765 32.9339 65.1351 33.3472 65.62C33.7606 66.1053 33.7022 66.8333 33.2171 67.2466L5.0194 91.2628C4.80225 91.4479 4.53617 91.5383 4.27171 91.5383Z" fill="#0F0F0F"></path><path d="M41.4271 76.0214C41.1412 76.0214 40.8555 75.9157 40.6331 75.7046L3.47691 40.4523C3.13445 40.1271 3.02437 39.6261 3.1993 39.1877C3.37422 38.7492 3.79884 38.4614 4.27099 38.4614H79.271C79.7452 38.4614 80.171 38.7515 80.3445 39.1927C80.5183 39.634 80.4045 40.1363 80.0574 40.4597L42.2136 75.7117C41.9921 75.9183 41.7096 76.0214 41.4271 76.0214ZM7.16368 40.7691L41.4345 73.2838L76.3395 40.7691H7.16368Z" fill="#0F0F0F"></path><path d="M79.271 91.5383H4.27103C3.63388 91.5383 3.11719 91.0219 3.11719 90.3845V39.6153C3.11719 38.9781 3.63388 38.4614 4.27103 38.4614C4.90819 38.4614 5.42488 38.9781 5.42488 39.6153V89.2307H78.1172V39.6153C78.1172 38.9781 78.6337 38.4614 79.271 38.4614C79.9084 38.4614 80.4249 38.9781 80.4249 39.6153V90.3845C80.4249 91.0219 79.9084 91.5383 79.271 91.5383Z" fill="#0F0F0F"></path><path d="M65.4225 86.9229H18.1148C17.4776 86.9229 16.9609 86.4065 16.9609 85.7691C16.9609 85.1317 17.4776 84.6152 18.1148 84.6152H65.4225C66.0599 84.6152 66.5763 85.1317 66.5763 85.7691C66.5763 86.4065 66.0599 86.9229 65.4225 86.9229Z" fill="#0F0F0F"></path><path d="M57.3468 83.4615H26.1929C25.5558 83.4615 25.0391 82.945 25.0391 82.3077C25.0391 81.6703 25.5558 81.1538 26.1929 81.1538H57.3468C57.9841 81.1538 58.5006 81.6703 58.5006 82.3077C58.5006 82.945 57.9841 83.4615 57.3468 83.4615Z" fill="#0F0F0F"></path><path d="M50.4225 79.9998H33.1148C32.4776 79.9998 31.9609 79.4834 31.9609 78.846C31.9609 78.2086 32.4776 77.6921 33.1148 77.6921H50.4225C51.0599 77.6921 51.5763 78.2086 51.5763 78.846C51.5763 79.4834 51.0599 79.9998 50.4225 79.9998Z" fill="#0F0F0F"></path><path d="M86.1929 83.4614H79.2698C78.6324 83.4614 78.116 82.945 78.116 82.3076C78.116 81.6702 78.6324 81.1538 79.2698 81.1538H85.0391V32.6922H12.3468V39.6153C12.3468 40.2524 11.8301 40.7691 11.1929 40.7691C10.5558 40.7691 10.0391 40.2524 10.0391 39.6153V31.5384C10.0391 30.9012 10.5558 30.3845 11.1929 30.3845H86.1929C86.8303 30.3845 87.3468 30.9012 87.3468 31.5384V82.3076C87.3468 82.945 86.8303 83.4614 86.1929 83.4614Z" fill="#0F0F0F"></path><path d="M93.1148 75.3845H86.1917C85.5543 75.3845 85.0379 74.8681 85.0379 74.2307C85.0379 73.5933 85.5543 73.0768 86.1917 73.0768H91.9609V24.6153H19.2686V31.5384C19.2686 32.1755 18.7519 32.6922 18.1148 32.6922C17.4776 32.6922 16.9609 32.1755 16.9609 31.5384V23.4615C16.9609 22.8243 17.4776 22.3076 18.1148 22.3076H93.1148C93.7522 22.3076 94.2686 22.8243 94.2686 23.4615V74.2307C94.2686 74.8681 93.7522 75.3845 93.1148 75.3845Z" fill="#0F0F0F"></path><path d="M100.037 67.3076H93.1136C92.4762 67.3076 91.9597 66.7912 91.9597 66.1538C91.9597 65.5164 92.4762 64.9999 93.1136 64.9999H98.8828V16.5384H26.1905V23.4615C26.1905 24.0986 25.6738 24.6153 25.0367 24.6153C24.3995 24.6153 23.8828 24.0986 23.8828 23.4615V15.3846C23.8828 14.7474 24.3995 14.2307 25.0367 14.2307H100.037C100.674 14.2307 101.191 14.7474 101.191 15.3846V66.1538C101.191 66.7912 100.674 67.3076 100.037 67.3076Z" fill="#0F0F0F"></path><path d="M7.73167 20C3.91429 20 0.808594 16.8943 0.808594 13.0769C0.808594 9.2595 3.91429 6.15381 7.73167 6.15381C11.5491 6.15381 14.6547 9.2595 14.6547 13.0769C14.6547 16.8943 11.5491 20 7.73167 20ZM7.73167 8.4615C5.18675 8.4615 3.11629 10.532 3.11629 13.0769C3.11629 15.6218 5.18675 17.6923 7.73167 17.6923C10.2766 17.6923 12.3471 15.6218 12.3471 13.0769C12.3471 10.532 10.2766 8.4615 7.73167 8.4615Z" fill="#0F0F0F"></path><path d="M93.1154 97.3077C90.5707 97.3077 88.5 95.2372 88.5 92.6923C88.5 90.1474 90.5707 88.0769 93.1154 88.0769C95.6601 88.0769 97.7308 90.1474 97.7308 92.6923C97.7308 95.2372 95.6601 97.3077 93.1154 97.3077ZM93.1154 90.3846C91.8429 90.3846 90.8077 91.4198 90.8077 92.6923C90.8077 93.9648 91.8429 95 93.1154 95C94.3878 95 95.4231 93.9648 95.4231 92.6923C95.4231 91.4198 94.3878 90.3846 93.1154 90.3846Z" fill="#0F0F0F"></path></svg>