                <svg xmlns="http://www.w3.org/2000/svg" width="106" height="102" viewBox="0 0 106 102" fill="none"><path d="M67.5933 70.207C78.9336 72.7663 86.7403 78.1199 86.7403 84.2999C86.7403 92.9791 71.3733 100.011 52.4159 100.011C33.4741 100.011 18.1074 92.9791 18.1074 84.2999C18.1074 78.1501 25.8405 72.826 37.1043 70.2345C42.6036 76.456 48.1905 82.7863 52.282 89.356C56.4359 82.6916 62.0641 76.3755 67.5933 70.207Z" fill="#F8B326"></path><path d="M98.0005 45.231C101.506 45.231 104.347 48.0717 104.347 51.5771C104.347 55.0825 101.506 57.9233 98.0005 57.9233C94.4974 57.9233 91.6543 55.0825 91.6543 51.5771C91.6543 48.0717 94.4974 45.231 98.0005 45.231Z" fill="#F8B326"></path><path d="M8.0009 62.5386C10.8694 62.5386 13.1932 64.8624 13.1932 67.7309C13.1932 70.5993 10.8694 72.9232 8.0009 72.9232C5.13475 72.9232 2.80859 70.5993 2.80859 67.7309C2.80859 64.8624 5.13475 62.5386 8.0009 62.5386Z" fill="#F8B326"></path><path d="M67.5933 70.2069C62.064 76.3752 56.4356 82.6916 52.2817 89.3559C48.1902 82.7859 42.6033 76.4559 37.104 70.2344C27.1763 58.9985 17.5371 48.1267 17.5371 36.8675C17.5371 17.6098 33.1579 1.98901 52.4158 1.98901C71.6873 1.98901 87.3102 17.6098 87.3102 36.8675C87.3102 48.3139 77.6156 59.0216 67.5933 70.2069ZM73.8171 35.5962C73.8171 23.8131 64.1963 14.2108 52.4317 14.2108C40.651 14.2108 31.0279 23.8131 31.0279 35.5962C31.0279 47.3769 40.651 56.9816 52.4317 56.9816C64.1963 56.9816 73.8171 47.3769 73.8171 35.5962Z" fill="#F8B326"></path><path d="M99.1546 24.4617C100.112 24.4617 100.885 25.2371 100.885 26.1924C100.885 27.1478 100.112 27.9232 99.1546 27.9232C98.1992 27.9232 97.4238 27.1478 97.4238 26.1924C97.4238 25.2371 98.1992 24.4617 99.1546 24.4617Z" fill="#0F0F0F"></path><path d="M95.6917 79.8462C96.6494 79.8462 97.4225 80.6216 97.4225 81.577C97.4225 82.5323 96.6494 83.3077 95.6917 83.3077C94.7363 83.3077 93.9609 82.5323 93.9609 81.577C93.9609 80.6216 94.7363 79.8462 95.6917 79.8462Z" fill="#0F0F0F"></path><path d="M84.1546 1.38477C85.1123 1.38477 85.8854 2.16015 85.8854 3.11553C85.8854 4.07092 85.1123 4.8463 84.1546 4.8463C83.1992 4.8463 82.4238 4.07092 82.4238 3.11553C82.4238 2.16015 83.1992 1.38477 84.1546 1.38477Z" fill="#0F0F0F"></path><path d="M16.0765 2.53857C17.0342 2.53857 17.8072 3.31396 17.8072 4.26934C17.8072 5.22473 17.0342 6.00011 16.0765 6.00011C15.1211 6.00011 14.3457 5.22473 14.3457 4.26934C14.3457 3.31396 15.1211 2.53857 16.0765 2.53857Z" fill="#0F0F0F"></path><path d="M12.6155 48.6924C13.5732 48.6924 14.3463 49.4678 14.3463 50.4232C14.3463 51.3785 13.5732 52.1539 12.6155 52.1539C11.6602 52.1539 10.8848 51.3785 10.8848 50.4232C10.8848 49.4678 11.6602 48.6924 12.6155 48.6924Z" fill="#0F0F0F"></path><path d="M9.1546 92.5386C10.1123 92.5386 10.8854 93.314 10.8854 94.2693C10.8854 95.2247 10.1123 96.0001 9.1546 96.0001C8.19921 96.0001 7.42383 95.2247 7.42383 94.2693C7.42383 93.314 8.19921 92.5386 9.1546 92.5386Z" fill="#0F0F0F"></path><path d="M2.23077 27.9231C3.18846 27.9231 3.96154 28.6985 3.96154 29.6539C3.96154 30.6092 3.18846 31.3846 2.23077 31.3846C1.27538 31.3846 0.5 30.6092 0.5 29.6539C0.5 28.6985 1.27538 27.9231 2.23077 27.9231Z" fill="#0F0F0F"></path><path d="M52.2832 90.5101C51.8845 90.5101 51.5143 90.3042 51.3038 89.9664C47.2435 83.4462 41.6501 77.1183 36.2411 70.999L36.1411 70.8859C25.9813 59.3874 16.3848 48.5262 16.3848 36.868C16.3848 16.9997 32.5488 0.835693 52.4173 0.835693C72.2944 0.835693 88.4655 16.9997 88.4655 36.868C88.4655 48.6455 78.8854 59.3364 68.7428 70.6552L68.4541 70.9773C63.2909 76.7373 57.4393 83.2655 53.2624 89.9666C53.0519 90.3045 52.6815 90.5101 52.2832 90.5101ZM52.4173 3.14315C33.8212 3.14315 18.6925 18.2719 18.6925 36.8678C18.6925 47.6525 28.0079 58.1957 37.8705 69.3578L37.9702 69.4706C43.0241 75.1884 48.2374 81.0864 52.2839 87.2202C56.4622 80.8978 61.8978 74.8342 66.7358 69.4369L67.0243 69.1148C76.8641 58.1343 86.1578 47.7626 86.1578 36.8678C86.1578 18.2719 71.0219 3.14315 52.4173 3.14315Z" fill="#0F0F0F"></path><path d="M52.4327 58.1353C39.9945 58.1353 29.875 48.0244 29.875 35.5961C29.875 23.1678 39.9945 13.0569 52.4327 13.0569C64.8608 13.0569 74.9719 23.1678 74.9719 35.5961C74.9719 48.0244 64.861 58.1353 52.4327 58.1353ZM52.4327 15.3646C41.2667 15.3646 32.1827 24.4405 32.1827 35.5961C32.1827 46.7517 41.2667 55.8277 52.4327 55.8277C63.5883 55.8277 72.6642 46.7517 72.6642 35.5961C72.6642 24.4405 63.5883 15.3646 52.4327 15.3646Z" fill="#0F0F0F"></path><path d="M52.4304 51.2123C43.8133 51.2123 36.8027 44.2071 36.8027 35.5961C36.8027 34.959 37.3194 34.4423 37.9566 34.4423C38.5937 34.4423 39.1104 34.959 39.1104 35.5961C39.1104 42.9344 45.0857 48.9046 52.4304 48.9046C55.9697 48.9046 59.3076 47.5172 61.8287 44.9984C64.3504 42.4791 65.7389 39.1401 65.7389 35.5961C65.7389 28.2579 59.7689 22.2877 52.4304 22.2877C51.7933 22.2877 51.2766 21.771 51.2766 21.1338C51.2766 20.4967 51.7933 19.98 52.4304 19.98C61.0411 19.98 68.0466 26.9852 68.0466 35.5961C68.0466 39.7569 66.4174 43.6758 63.4598 46.6308C60.503 49.5851 56.5859 51.2123 52.4304 51.2123Z" fill="#0F0F0F"></path><path d="M52.4157 101.165C43.091 101.165 34.3056 99.4936 27.6779 96.4592C20.762 93.2931 16.9531 88.9749 16.9531 84.3C16.9531 77.7538 24.5752 71.9331 36.8452 69.1101C36.9301 69.0907 37.0169 69.0808 37.1039 69.0808C37.741 69.0808 38.26 69.5973 38.26 70.2346C38.26 70.8012 37.8537 71.2722 37.3157 71.37C26.3457 73.9034 19.2608 78.9762 19.2608 84.3C19.2608 87.9656 22.679 91.6325 28.6384 94.3611C34.9711 97.2603 43.4152 98.8569 52.4154 98.8569C61.4224 98.8569 69.8717 97.2603 76.2066 94.3611C82.1674 91.6329 85.5862 87.9658 85.5862 84.3C85.5862 78.9243 78.4238 73.8342 67.3393 71.3326C67.2564 71.3139 67.1761 71.2863 67.1 71.2503C66.7072 71.0663 66.4349 70.6676 66.4349 70.2049C66.4349 69.5675 66.9514 69.051 67.5887 69.051C67.6914 69.051 67.7939 69.0651 67.892 69.0919C80.2307 71.8865 87.8939 77.712 87.8939 84.3003C87.8939 88.9756 84.0844 93.2938 77.167 96.4595C70.5373 99.4936 61.7468 101.165 52.4157 101.165Z" fill="#0F0F0F"></path><path d="M8.00045 74.0771C4.50107 74.0771 1.6543 71.2301 1.6543 67.7309C1.6543 64.2318 4.50107 61.3848 8.00045 61.3848C11.4998 61.3848 14.3466 64.2318 14.3466 67.7309C14.3466 71.2301 11.4998 74.0771 8.00045 74.0771ZM8.00045 63.6925C5.77376 63.6925 3.96199 65.5042 3.96199 67.7309C3.96199 69.9576 5.77376 71.7694 8.00045 71.7694C10.2271 71.7694 12.0389 69.9576 12.0389 67.7309C12.0389 65.5042 10.2271 63.6925 8.00045 63.6925Z" fill="#0F0F0F"></path><path d="M98 59.0769C93.8646 59.0769 90.5 55.7125 90.5 51.5769C90.5 47.4415 93.8646 44.0769 98 44.0769C102.135 44.0769 105.5 47.4415 105.5 51.5769C105.5 55.7125 102.135 59.0769 98 59.0769ZM98 46.3846C95.1371 46.3846 92.8077 48.7138 92.8077 51.5769C92.8077 54.4398 95.1371 56.7692 98 56.7692C100.863 56.7692 103.192 54.4398 103.192 51.5769C103.192 48.7138 100.863 46.3846 98 46.3846Z" fill="#0F0F0F"></path><path d="M67.5933 70.207C78.9336 72.7663 86.7403 78.1199 86.7403 84.2999C86.7403 92.9791 71.3733 100.011 52.4159 100.011C33.4741 100.011 18.1074 92.9791 18.1074 84.2999C18.1074 78.1501 25.8405 72.826 37.1043 70.2345C42.6036 76.456 48.1905 82.7863 52.282 89.356C56.4359 82.6916 62.0641 76.3755 67.5933 70.207Z" fill="white"></path><path d="M98.0005 45.231C101.506 45.231 104.347 48.0717 104.347 51.5771C104.347 55.0825 101.506 57.9233 98.0005 57.9233C94.4974 57.9233 91.6543 55.0825 91.6543 51.5771C91.6543 48.0717 94.4974 45.231 98.0005 45.231Z" fill="#F8B326"></path><path d="M8.0009 62.5386C10.8694 62.5386 13.1932 64.8624 13.1932 67.7309C13.1932 70.5993 10.8694 72.9232 8.0009 72.9232C5.13475 72.9232 2.80859 70.5993 2.80859 67.7309C2.80859 64.8624 5.13475 62.5386 8.0009 62.5386Z" fill="#F8B326"></path><path d="M67.5933 70.2069C62.064 76.3752 56.4356 82.6916 52.2817 89.3559C48.1902 82.7859 42.6033 76.4559 37.104 70.2344C27.1763 58.9985 17.5371 48.1267 17.5371 36.8675C17.5371 17.6098 33.1579 1.98901 52.4158 1.98901C71.6873 1.98901 87.3102 17.6098 87.3102 36.8675C87.3102 48.3139 77.6156 59.0216 67.5933 70.2069ZM73.8171 35.5962C73.8171 23.8131 64.1963 14.2108 52.4317 14.2108C40.651 14.2108 31.0279 23.8131 31.0279 35.5962C31.0279 47.3769 40.651 56.9816 52.4317 56.9816C64.1963 56.9816 73.8171 47.3769 73.8171 35.5962Z" fill="#F8B326"></path><path d="M99.1546 24.4617C100.112 24.4617 100.885 25.2371 100.885 26.1924C100.885 27.1478 100.112 27.9232 99.1546 27.9232C98.1992 27.9232 97.4238 27.1478 97.4238 26.1924C97.4238 25.2371 98.1992 24.4617 99.1546 24.4617Z" fill="#0F0F0F"></path><path d="M95.6917 79.8462C96.6494 79.8462 97.4225 80.6216 97.4225 81.577C97.4225 82.5323 96.6494 83.3077 95.6917 83.3077C94.7363 83.3077 93.9609 82.5323 93.9609 81.577C93.9609 80.6216 94.7363 79.8462 95.6917 79.8462Z" fill="#0F0F0F"></path><path d="M84.1546 1.38477C85.1123 1.38477 85.8854 2.16015 85.8854 3.11553C85.8854 4.07092 85.1123 4.8463 84.1546 4.8463C83.1992 4.8463 82.4238 4.07092 82.4238 3.11553C82.4238 2.16015 83.1992 1.38477 84.1546 1.38477Z" fill="#0F0F0F"></path><path d="M16.0765 2.53857C17.0342 2.53857 17.8072 3.31396 17.8072 4.26934C17.8072 5.22473 17.0342 6.00011 16.0765 6.00011C15.1211 6.00011 14.3457 5.22473 14.3457 4.26934C14.3457 3.31396 15.1211 2.53857 16.0765 2.53857Z" fill="#0F0F0F"></path><path d="M12.6155 48.6924C13.5732 48.6924 14.3463 49.4678 14.3463 50.4232C14.3463 51.3785 13.5732 52.1539 12.6155 52.1539C11.6602 52.1539 10.8848 51.3785 10.8848 50.4232C10.8848 49.4678 11.6602 48.6924 12.6155 48.6924Z" fill="#0F0F0F"></path><path d="M9.1546 92.5386C10.1123 92.5386 10.8854 93.314 10.8854 94.2693C10.8854 95.2247 10.1123 96.0001 9.1546 96.0001C8.19921 96.0001 7.42383 95.2247 7.42383 94.2693C7.42383 93.314 8.19921 92.5386 9.1546 92.5386Z" fill="#0F0F0F"></path><path d="M2.23077 27.9231C3.18846 27.9231 3.96154 28.6985 3.96154 29.6539C3.96154 30.6092 3.18846 31.3846 2.23077 31.3846C1.27538 31.3846 0.5 30.6092 0.5 29.6539C0.5 28.6985 1.27538 27.9231 2.23077 27.9231Z" fill="#0F0F0F"></path><path d="M52.2832 90.5101C51.8845 90.5101 51.5143 90.3042 51.3038 89.9664C47.2435 83.4462 41.6501 77.1183 36.2411 70.999L36.1411 70.8859C25.9813 59.3874 16.3848 48.5262 16.3848 36.868C16.3848 16.9997 32.5488 0.835693 52.4173 0.835693C72.2944 0.835693 88.4655 16.9997 88.4655 36.868C88.4655 48.6455 78.8854 59.3364 68.7428 70.6552L68.4541 70.9773C63.2909 76.7373 57.4393 83.2655 53.2624 89.9666C53.0519 90.3045 52.6815 90.5101 52.2832 90.5101ZM52.4173 3.14315C33.8212 3.14315 18.6925 18.2719 18.6925 36.8678C18.6925 47.6525 28.0079 58.1957 37.8705 69.3578L37.9702 69.4706C43.0241 75.1884 48.2374 81.0864 52.2839 87.2202C56.4622 80.8978 61.8978 74.8342 66.7358 69.4369L67.0243 69.1148C76.8641 58.1343 86.1578 47.7626 86.1578 36.8678C86.1578 18.2719 71.0219 3.14315 52.4173 3.14315Z" fill="#0F0F0F"></path><path d="M52.4327 58.1353C39.9945 58.1353 29.875 48.0244 29.875 35.5961C29.875 23.1678 39.9945 13.0569 52.4327 13.0569C64.8608 13.0569 74.9719 23.1678 74.9719 35.5961C74.9719 48.0244 64.861 58.1353 52.4327 58.1353ZM52.4327 15.3646C41.2667 15.3646 32.1827 24.4405 32.1827 35.5961C32.1827 46.7517 41.2667 55.8277 52.4327 55.8277C63.5883 55.8277 72.6642 46.7517 72.6642 35.5961C72.6642 24.4405 63.5883 15.3646 52.4327 15.3646Z" fill="#0F0F0F"></path><path d="M52.4304 51.2123C43.8133 51.2123 36.8027 44.2071 36.8027 35.5961C36.8027 34.959 37.3194 34.4423 37.9566 34.4423C38.5937 34.4423 39.1104 34.959 39.1104 35.5961C39.1104 42.9344 45.0857 48.9046 52.4304 48.9046C55.9697 48.9046 59.3076 47.5172 61.8287 44.9984C64.3504 42.4791 65.7389 39.1401 65.7389 35.5961C65.7389 28.2579 59.7689 22.2877 52.4304 22.2877C51.7933 22.2877 51.2766 21.771 51.2766 21.1338C51.2766 20.4967 51.7933 19.98 52.4304 19.98C61.0411 19.98 68.0466 26.9852 68.0466 35.5961C68.0466 39.7569 66.4174 43.6758 63.4598 46.6308C60.503 49.5851 56.5859 51.2123 52.4304 51.2123Z" fill="#0F0F0F"></path><path d="M52.4157 101.165C43.091 101.165 34.3056 99.4936 27.6779 96.4592C20.762 93.2931 16.9531 88.9749 16.9531 84.3C16.9531 77.7538 24.5752 71.9331 36.8452 69.1101C36.9301 69.0907 37.0169 69.0808 37.1039 69.0808C37.741 69.0808 38.26 69.5973 38.26 70.2346C38.26 70.8012 37.8537 71.2722 37.3157 71.37C26.3457 73.9034 19.2608 78.9762 19.2608 84.3C19.2608 87.9656 22.679 91.6325 28.6384 94.3611C34.9711 97.2603 43.4152 98.8569 52.4154 98.8569C61.4224 98.8569 69.8717 97.2603 76.2066 94.3611C82.1674 91.6329 85.5862 87.9658 85.5862 84.3C85.5862 78.9243 78.4238 73.8342 67.3393 71.3326C67.2564 71.3139 67.1761 71.2863 67.1 71.2503C66.7072 71.0663 66.4349 70.6676 66.4349 70.2049C66.4349 69.5675 66.9514 69.051 67.5887 69.051C67.6914 69.051 67.7939 69.0651 67.892 69.0919C80.2307 71.8865 87.8939 77.712 87.8939 84.3003C87.8939 88.9756 84.0844 93.2938 77.167 96.4595C70.5373 99.4936 61.7468 101.165 52.4157 101.165Z" fill="#0F0F0F"></path><path d="M8.00045 74.0771C4.50107 74.0771 1.6543 71.2301 1.6543 67.7309C1.6543 64.2318 4.50107 61.3848 8.00045 61.3848C11.4998 61.3848 14.3466 64.2318 14.3466 67.7309C14.3466 71.2301 11.4998 74.0771 8.00045 74.0771ZM8.00045 63.6925C5.77376 63.6925 3.96199 65.5042 3.96199 67.7309C3.96199 69.9576 5.77376 71.7694 8.00045 71.7694C10.2271 71.7694 12.0389 69.9576 12.0389 67.7309C12.0389 65.5042 10.2271 63.6925 8.00045 63.6925Z" fill="#0F0F0F"></path><path d="M98 59.0769C93.8646 59.0769 90.5 55.7125 90.5 51.5769C90.5 47.4415 93.8646 44.0769 98 44.0769C102.135 44.0769 105.5 47.4415 105.5 51.5769C105.5 55.7125 102.135 59.0769 98 59.0769ZM98 46.3846C95.1371 46.3846 92.8077 48.7138 92.8077 51.5769C92.8077 54.4398 95.1371 56.7692 98 56.7692C100.863 56.7692 103.192 54.4398 103.192 51.5769C103.192 48.7138 100.863 46.3846 98 46.3846Z" fill="#0F0F0F"></path></svg>