<svg xmlns="http://www.w3.org/2000/svg" width="102" height="106" viewBox="0 0 102 106" fill="none"><path d="M83.3068 2.80762C85.857 2.80762 87.9222 4.873 87.9222 7.423C87.9222 9.973 85.857 12.0384 83.3068 12.0384C80.7591 12.0384 78.6914 9.973 78.6914 7.423C78.6914 4.873 80.7591 2.80762 83.3068 2.80762Z" fill="white"></path><path d="M94.2689 55.8845C96.5005 55.8845 98.3074 57.6914 98.3074 59.923C98.3074 62.1545 96.5005 63.9614 94.2689 63.9614C92.0397 63.9614 90.2305 62.1545 90.2305 59.923C90.2305 57.6914 92.0397 55.8845 94.2689 55.8845Z" fill="white"></path><path d="M12.3462 70.8845C15.8515 70.8845 18.6923 73.7253 18.6923 77.2307C18.6923 80.7361 15.8515 83.5768 12.3462 83.5768C8.84308 83.5768 6 80.7361 6 77.2307C6 73.7253 8.84308 70.8845 12.3462 70.8845Z" fill="white"></path><path d="M84.4108 61.9101C90.72 68.2193 90.72 78.4468 84.4108 84.7537L83.5962 85.5706L60.75 62.7245L61.5669 61.9101C64.7215 58.7554 68.8546 57.1768 72.9877 57.1768C77.1231 57.177 81.2585 58.7554 84.4108 61.9101Z" fill="white"></path><path d="M33.0084 10.5085C39.3177 16.8177 39.3177 27.0454 33.0084 33.3546L32.1938 34.1692L9.34766 11.3254L10.1646 10.5085C13.3192 7.35385 17.4546 5.77539 21.5877 5.77539C25.7207 5.77539 29.8561 7.35385 33.0084 10.5085Z" fill="white"></path><path d="M9.34755 40.6977C1.23832 32.5862 1.23832 19.4347 9.34755 11.3254L32.1937 34.1693L60.7491 62.7247L83.5952 85.5708C79.5406 89.6277 74.2239 91.6539 68.9091 91.6539C63.5942 91.6539 58.2775 89.6277 54.2229 85.5708L9.34755 40.6977Z" fill="#F8B326"></path><path d="M95.9998 33.9453C95.9998 39.1238 93.519 43.723 89.6814 46.6192L90.3344 52.0746L84.2952 49.2569C82.9706 49.6169 81.5767 49.8084 80.1365 49.8084C71.3767 49.8084 64.2734 42.7077 64.2734 33.9453C64.2734 33.4653 64.2967 32.9923 64.3383 32.5215C70.1327 30.5277 74.4111 25.2684 74.9744 18.943C76.5921 18.3869 78.3296 18.0823 80.1365 18.0823C88.8991 18.0823 95.9998 25.1853 95.9998 33.9453Z" fill="#F8B326"></path><path d="M64.3381 32.5215C62.7202 33.0777 60.9825 33.38 59.1756 33.38C57.7358 33.38 56.342 33.1861 55.0171 32.8284L48.9779 35.6461L49.6333 30.1884C45.7933 27.2946 43.3125 22.6953 43.3125 17.5169C43.3125 8.75688 50.4156 1.65381 59.1753 1.65381C67.9356 1.65381 75.0384 8.75688 75.0384 17.5169C75.0384 17.9969 75.0177 18.4723 74.974 18.943C74.411 25.2684 70.1325 30.5277 64.3381 32.5215Z" fill="white"></path><path d="M100.037 13.1924C100.995 13.1924 101.768 13.9678 101.768 14.9232C101.768 15.8785 100.995 16.6539 100.037 16.6539C99.082 16.6539 98.3066 15.8785 98.3066 14.9232C98.3066 13.9678 99.082 13.1924 100.037 13.1924Z" fill="#0F0F0F"></path><path d="M97.7308 78.9614C98.6885 78.9614 99.4615 79.7368 99.4615 80.6922C99.4615 81.6476 98.6885 82.423 97.7308 82.423C96.7754 82.423 96 81.6476 96 80.6922C96 79.7368 96.7754 78.9614 97.7308 78.9614Z" fill="#0F0F0F"></path><path d="M40.0374 2.80762C40.9951 2.80762 41.7682 3.583 41.7682 4.53839C41.7682 5.49377 40.9951 6.26916 40.0374 6.26916C39.082 6.26916 38.3066 5.49377 38.3066 4.53839C38.3066 3.583 39.082 2.80762 40.0374 2.80762Z" fill="#0F0F0F"></path><path d="M35.4222 76.6538C36.3799 76.6538 37.1529 77.4292 37.1529 78.3846C37.1529 79.34 36.3799 80.1153 35.4222 80.1153C34.4668 80.1153 33.6914 79.34 33.6914 78.3846C33.6914 77.4292 34.4668 76.6538 35.4222 76.6538Z" fill="#0F0F0F"></path><path d="M15.8069 96.2693C16.7646 96.2693 17.5377 97.0447 17.5377 98.0001C17.5377 98.9554 16.7646 99.7308 15.8069 99.7308C14.8516 99.7308 14.0762 98.9554 14.0762 98.0001C14.0762 97.0447 14.8516 96.2693 15.8069 96.2693Z" fill="#0F0F0F"></path><path d="M5.42218 3.96143C6.37987 3.96143 7.15294 4.73681 7.15294 5.6922C7.15294 6.64758 6.37987 7.42296 5.42218 7.42296C4.46679 7.42296 3.69141 6.64758 3.69141 5.6922C3.69141 4.73681 4.46679 3.96143 5.42218 3.96143Z" fill="#0F0F0F"></path><path d="M1.96124 52.4231C2.91893 52.4231 3.69201 53.1985 3.69201 54.1539C3.69201 55.1092 2.91893 55.8846 1.96124 55.8846C1.00585 55.8846 0.230469 55.1092 0.230469 54.1539C0.230469 53.1985 1.00585 52.4231 1.96124 52.4231Z" fill="#0F0F0F"></path><path d="M32.1953 35.3231C31.8999 35.3231 31.6047 35.2105 31.3793 34.9853C30.9286 34.5346 30.9286 33.804 31.3793 33.3535L32.1939 32.5389C35.0275 29.7055 36.5879 25.9382 36.5879 21.9318C36.5879 17.9252 35.0275 14.1581 32.1939 11.3247C29.3616 8.4902 25.5957 6.92927 21.5891 6.92927C17.5832 6.92927 13.8161 8.4902 10.982 11.3245L10.1651 12.1414C9.71441 12.5919 8.98402 12.5919 8.53333 12.1414C8.08264 11.6907 8.08264 10.9601 8.53333 10.5097L9.35026 9.69274C12.6205 6.42274 16.967 4.62158 21.5893 4.62158C26.2126 4.62158 30.5584 6.42274 33.8261 9.69297C37.0954 12.962 38.8959 17.3086 38.8959 21.9316C38.8959 26.5546 37.0954 30.9011 33.8259 34.1707L33.0113 34.9853C32.7858 35.2105 32.4906 35.3231 32.1953 35.3231Z" fill="#0F0F0F"></path><path d="M83.5957 86.7247C83.301 86.7247 83.0061 86.6126 82.7808 86.3878C82.3297 85.938 82.3288 85.2074 82.7785 84.7563L83.5934 83.9393C86.4279 81.1057 87.9884 77.3393 87.9884 73.333C87.9884 69.3266 86.4279 65.5595 83.5943 62.7261C80.7621 59.8918 76.995 58.3309 72.9872 58.3309C68.9827 58.3309 65.2165 59.8918 62.3824 62.7261L61.5641 63.5419C61.1128 63.9917 60.3821 63.9905 59.9324 63.5393C59.4826 63.088 59.4835 62.3576 59.9349 61.9076L60.7518 61.0932C64.0209 57.8243 68.3665 56.0232 72.9874 56.0232C77.6121 56.0232 81.9586 57.8243 85.2265 61.0948C88.4956 64.3639 90.2963 68.7102 90.2963 73.333C90.2963 77.956 88.4956 82.3018 85.2261 85.57L84.4131 86.3855C84.1874 86.6114 83.8913 86.7247 83.5957 86.7247Z" fill="#0F0F0F"></path><path d="M83.6158 105.5H44.7197C41.8565 105.5 39.5273 103.171 39.5273 100.308C39.5273 98.9222 40.0664 97.6183 41.0456 96.6362C42.0303 95.6547 43.3341 95.1154 44.7197 95.1154H55.6789C56.316 95.1154 56.8327 95.6319 56.8327 96.2693C56.8327 96.9066 56.316 97.4231 55.6789 97.4231H44.7197C43.9491 97.4231 43.224 97.7231 42.6773 98.268C42.135 98.8119 41.835 99.5372 41.835 100.308C41.835 101.898 43.129 103.192 44.7197 103.192H83.6158C84.4879 103.192 85.3399 103.023 86.1476 102.689C86.953 102.355 87.675 101.872 88.2923 101.255C89.5422 100.006 90.2301 98.3453 90.2301 96.5783C90.2301 94.8113 89.5422 93.1506 88.2926 91.9022L82.779 86.3863C82.3286 85.9356 82.3286 85.205 82.7793 84.7546C83.23 84.3041 83.9606 84.3041 84.411 84.7548L89.9241 90.2702C91.6097 91.9543 92.5378 94.1946 92.5378 96.5783C92.5378 98.9619 91.6097 101.202 89.9237 102.887C89.0917 103.719 88.1181 104.37 87.0305 104.821C85.9401 105.272 84.792 105.5 83.6158 105.5Z" fill="#0F0F0F"></path><path d="M12.3457 84.7307C8.21032 84.7307 4.8457 81.3663 4.8457 77.2307C4.8457 73.0951 8.21032 69.7307 12.3457 69.7307C16.4811 69.7307 19.8457 73.0951 19.8457 77.2307C19.8457 81.3663 16.4811 84.7307 12.3457 84.7307ZM12.3457 72.0384C9.48255 72.0384 7.1534 74.3678 7.1534 77.2307C7.1534 80.0936 9.48255 82.423 12.3457 82.423C15.2089 82.423 17.538 80.0936 17.538 77.2307C17.538 74.3678 15.2089 72.0384 12.3457 72.0384Z" fill="#0F0F0F"></path><path d="M83.3083 13.1923C80.1271 13.1923 77.5391 10.6042 77.5391 7.42304C77.5391 4.24189 80.1271 1.65381 83.3083 1.65381C86.4894 1.65381 89.0775 4.24189 89.0775 7.42304C89.0775 10.6042 86.4894 13.1923 83.3083 13.1923ZM83.3083 3.9615C81.3996 3.9615 79.8468 5.51435 79.8468 7.42304C79.8468 9.33173 81.3996 10.8846 83.3083 10.8846C85.217 10.8846 86.7698 9.33173 86.7698 7.42304C86.7698 5.51435 85.217 3.9615 83.3083 3.9615Z" fill="#0F0F0F"></path><path d="M94.2685 65.1153C91.4056 65.1153 89.0762 62.7859 89.0762 59.923C89.0762 57.0601 91.4056 54.7307 94.2685 54.7307C97.1314 54.7307 99.4608 57.0601 99.4608 59.923C99.4608 62.7859 97.1314 65.1153 94.2685 65.1153ZM94.2685 57.0384C92.6778 57.0384 91.3839 58.3323 91.3839 59.923C91.3839 61.5137 92.6778 62.8076 94.2685 62.8076C95.8592 62.8076 97.1531 61.5137 97.1531 59.923C97.1531 58.3323 95.8592 57.0384 94.2685 57.0384Z" fill="#0F0F0F"></path><path d="M61.3834 75.4999C61.0882 75.4999 60.7928 75.3873 60.5676 75.1618L13.2599 27.8541C12.8092 27.4034 12.8092 26.6728 13.2599 26.2224C13.7106 25.7719 14.441 25.7719 14.8917 26.2224L62.1994 73.5301C62.6501 73.9805 62.6501 74.7111 62.1994 75.1616C61.9739 75.3873 61.6785 75.4999 61.3834 75.4999Z" fill="#0F0F0F"></path><path d="M90.3335 53.2285C90.1678 53.2285 90.0015 53.1929 89.8459 53.1202L84.1817 50.4775C82.8651 50.7994 81.5064 50.9623 80.1361 50.9623C70.753 50.9623 63.1191 43.3285 63.1191 33.9454C63.1191 33.4495 63.1418 32.954 63.1875 32.4313C63.2331 31.8359 63.7307 31.3663 64.3378 31.3663C64.975 31.3663 65.4917 31.8819 65.4917 32.519V32.5213C65.4917 32.5552 65.4901 32.5889 65.4871 32.6229C65.4465 33.0816 65.4266 33.5141 65.4266 33.9452C65.4266 42.0558 72.0252 48.6544 80.1358 48.6544C81.4466 48.6544 82.7438 48.4825 83.9918 48.1432C84.2551 48.0719 84.535 48.0957 84.7824 48.2111L88.9413 50.1516L88.5349 46.7563C88.4858 46.3485 88.6574 45.9456 88.9854 45.6982C92.7095 42.8879 94.8453 38.6042 94.8453 33.9454C94.8453 25.8348 88.2467 19.2362 80.1361 19.2362C78.4999 19.2362 76.8894 19.5048 75.349 20.0342C74.7474 20.2414 74.0901 19.9209 73.8827 19.3181C73.6754 18.7155 73.996 18.059 74.5988 17.8518C76.3812 17.2391 78.244 16.9285 80.1361 16.9285C89.5191 16.9285 97.153 24.5623 97.153 33.9454C97.153 39.1107 94.8841 43.877 90.9035 47.126L91.4793 51.9373C91.5294 52.3534 91.3496 52.7635 91.0106 53.0092C90.8103 53.1544 90.5726 53.2285 90.3335 53.2285Z" fill="#0F0F0F"></path><path d="M48.9777 36.8C48.7386 36.8 48.5011 36.7257 48.3006 36.5805C47.9614 36.3348 47.7818 35.9245 47.8319 35.5084L48.4097 30.6955C44.428 27.4495 42.1582 22.6838 42.1582 17.5169C42.1582 8.13362 49.792 0.5 59.1749 0.5C68.5582 0.5 76.1918 8.13385 76.1918 17.5169C76.1918 18.0378 76.1683 18.5535 76.1224 19.0499C75.5293 25.7138 71.0503 31.4318 64.7129 33.6124C62.9346 34.2237 61.0716 34.5336 59.1749 34.5336C57.812 34.5336 56.4532 34.3705 55.1302 34.0485L49.4653 36.6915C49.31 36.7642 49.1434 36.8 48.9777 36.8ZM59.1751 2.80769C51.0645 2.80769 44.4661 9.40631 44.4661 17.5169C44.4661 22.1771 46.6024 26.4597 50.3274 29.267C50.6556 29.5144 50.8275 29.9178 50.7786 30.326L50.3706 33.7229L54.5288 31.7829C54.7755 31.6679 55.0552 31.6439 55.3176 31.7145C56.5746 32.054 57.8724 32.2262 59.1751 32.2262C60.8157 32.2262 62.4267 31.9585 63.9624 31.4302C69.4402 29.5455 73.3116 24.6036 73.8244 18.8406C73.8645 18.4105 73.8844 17.9665 73.8844 17.5169C73.8844 9.40631 67.2857 2.80769 59.1751 2.80769Z" fill="#0F0F0F"></path><path d="M80.1366 50.9622H61.3843C60.7469 50.9622 60.2305 50.4455 60.2305 49.8084C60.2305 49.1712 60.7469 48.6545 61.3843 48.6545H80.1366C80.774 48.6545 81.2905 49.1712 81.2905 49.8084C81.2905 50.4455 80.7738 50.9622 80.1366 50.9622Z" fill="#0F0F0F"></path><path d="M63.6914 13.1922H49.8453C49.2081 13.1922 48.6914 12.6755 48.6914 12.0384C48.6914 11.4012 49.2081 10.8845 49.8453 10.8845H63.6914C64.3288 10.8845 64.8453 11.4012 64.8453 12.0384C64.8453 12.6755 64.3288 13.1922 63.6914 13.1922Z" fill="#0F0F0F"></path><path d="M68.3068 17.8077H49.8453C49.2081 17.8077 48.6914 17.291 48.6914 16.6538C48.6914 16.0167 49.2081 15.5 49.8453 15.5H68.3068C68.9442 15.5 69.4606 16.0167 69.4606 16.6538C69.4606 17.291 68.9442 17.8077 68.3068 17.8077Z" fill="#0F0F0F"></path><path d="M68.3068 22.4232H49.8453C49.2081 22.4232 48.6914 21.9065 48.6914 21.2693C48.6914 20.6322 49.2081 20.1155 49.8453 20.1155H68.3068C68.9442 20.1155 69.4606 20.6322 69.4606 21.2693C69.4606 21.9065 68.9442 22.4232 68.3068 22.4232Z" fill="#0F0F0F"></path><path d="M68.9104 92.8078C63.0521 92.8078 57.5467 90.5273 53.4081 86.3864L8.53312 41.5138C-0.0136452 32.9647 -0.0136452 19.0563 8.53312 10.5097C8.98405 10.0593 9.71466 10.0593 10.1649 10.5097L33.011 33.3536L84.4126 84.7551C84.8633 85.2056 84.8633 85.936 84.413 86.3864C80.2744 90.5273 74.7687 92.8078 68.9104 92.8078ZM9.37266 12.981C2.52782 20.6735 2.79182 32.5069 10.1649 39.882L55.0401 84.7551C58.7427 88.4601 63.6687 90.5003 68.9102 90.5003C73.7654 90.5003 78.3491 88.7502 81.9413 85.5478L9.37266 12.981Z" fill="#0F0F0F"></path><path d="M83.3068 2.80762C85.857 2.80762 87.9222 4.873 87.9222 7.423C87.9222 9.973 85.857 12.0384 83.3068 12.0384C80.7591 12.0384 78.6914 9.973 78.6914 7.423C78.6914 4.873 80.7591 2.80762 83.3068 2.80762Z" fill="white"></path><path d="M94.2689 55.8845C96.5005 55.8845 98.3074 57.6914 98.3074 59.923C98.3074 62.1545 96.5005 63.9614 94.2689 63.9614C92.0397 63.9614 90.2305 62.1545 90.2305 59.923C90.2305 57.6914 92.0397 55.8845 94.2689 55.8845Z" fill="white"></path><path d="M12.3462 70.8845C15.8515 70.8845 18.6923 73.7253 18.6923 77.2307C18.6923 80.7361 15.8515 83.5768 12.3462 83.5768C8.84308 83.5768 6 80.7361 6 77.2307C6 73.7253 8.84308 70.8845 12.3462 70.8845Z" fill="white"></path><path d="M84.4108 61.9101C90.72 68.2193 90.72 78.4468 84.4108 84.7537L83.5962 85.5706L60.75 62.7245L61.5669 61.9101C64.7215 58.7554 68.8546 57.1768 72.9877 57.1768C77.1231 57.177 81.2585 58.7554 84.4108 61.9101Z" fill="white"></path><path d="M33.0084 10.5085C39.3177 16.8177 39.3177 27.0454 33.0084 33.3546L32.1938 34.1692L9.34766 11.3254L10.1646 10.5085C13.3192 7.35385 17.4546 5.77539 21.5877 5.77539C25.7207 5.77539 29.8561 7.35385 33.0084 10.5085Z" fill="white"></path><path d="M9.34755 40.6977C1.23832 32.5862 1.23832 19.4347 9.34755 11.3254L32.1937 34.1693L60.7491 62.7247L83.5952 85.5708C79.5406 89.6277 74.2239 91.6539 68.9091 91.6539C63.5942 91.6539 58.2775 89.6277 54.2229 85.5708L9.34755 40.6977Z" fill="#F8B326"></path><path d="M95.9998 33.9453C95.9998 39.1238 93.519 43.723 89.6814 46.6192L90.3344 52.0746L84.2952 49.2569C82.9706 49.6169 81.5767 49.8084 80.1365 49.8084C71.3767 49.8084 64.2734 42.7077 64.2734 33.9453C64.2734 33.4653 64.2967 32.9923 64.3383 32.5215C70.1327 30.5277 74.4111 25.2684 74.9744 18.943C76.5921 18.3869 78.3296 18.0823 80.1365 18.0823C88.8991 18.0823 95.9998 25.1853 95.9998 33.9453Z" fill="#F8B326"></path><path d="M64.3381 32.5215C62.7202 33.0777 60.9825 33.38 59.1756 33.38C57.7358 33.38 56.342 33.1861 55.0171 32.8284L48.9779 35.6461L49.6333 30.1884C45.7933 27.2946 43.3125 22.6953 43.3125 17.5169C43.3125 8.75688 50.4156 1.65381 59.1753 1.65381C67.9356 1.65381 75.0384 8.75688 75.0384 17.5169C75.0384 17.9969 75.0177 18.4723 74.974 18.943C74.411 25.2684 70.1325 30.5277 64.3381 32.5215Z" fill="white"></path><path d="M100.037 13.1924C100.995 13.1924 101.768 13.9678 101.768 14.9232C101.768 15.8785 100.995 16.6539 100.037 16.6539C99.082 16.6539 98.3066 15.8785 98.3066 14.9232C98.3066 13.9678 99.082 13.1924 100.037 13.1924Z" fill="#0F0F0F"></path><path d="M97.7308 78.9614C98.6885 78.9614 99.4615 79.7368 99.4615 80.6922C99.4615 81.6476 98.6885 82.423 97.7308 82.423C96.7754 82.423 96 81.6476 96 80.6922C96 79.7368 96.7754 78.9614 97.7308 78.9614Z" fill="#0F0F0F"></path><path d="M40.0374 2.80762C40.9951 2.80762 41.7682 3.583 41.7682 4.53839C41.7682 5.49377 40.9951 6.26916 40.0374 6.26916C39.082 6.26916 38.3066 5.49377 38.3066 4.53839C38.3066 3.583 39.082 2.80762 40.0374 2.80762Z" fill="#0F0F0F"></path><path d="M35.4222 76.6538C36.3799 76.6538 37.1529 77.4292 37.1529 78.3846C37.1529 79.34 36.3799 80.1153 35.4222 80.1153C34.4668 80.1153 33.6914 79.34 33.6914 78.3846C33.6914 77.4292 34.4668 76.6538 35.4222 76.6538Z" fill="#0F0F0F"></path><path d="M15.8069 96.2693C16.7646 96.2693 17.5377 97.0447 17.5377 98.0001C17.5377 98.9554 16.7646 99.7308 15.8069 99.7308C14.8516 99.7308 14.0762 98.9554 14.0762 98.0001C14.0762 97.0447 14.8516 96.2693 15.8069 96.2693Z" fill="#0F0F0F"></path><path d="M5.42218 3.96143C6.37987 3.96143 7.15294 4.73681 7.15294 5.6922C7.15294 6.64758 6.37987 7.42296 5.42218 7.42296C4.46679 7.42296 3.69141 6.64758 3.69141 5.6922C3.69141 4.73681 4.46679 3.96143 5.42218 3.96143Z" fill="#0F0F0F"></path><path d="M1.96124 52.4231C2.91893 52.4231 3.69201 53.1985 3.69201 54.1539C3.69201 55.1092 2.91893 55.8846 1.96124 55.8846C1.00585 55.8846 0.230469 55.1092 0.230469 54.1539C0.230469 53.1985 1.00585 52.4231 1.96124 52.4231Z" fill="#0F0F0F"></path><path d="M32.1953 35.3231C31.8999 35.3231 31.6047 35.2105 31.3793 34.9853C30.9286 34.5346 30.9286 33.804 31.3793 33.3535L32.1939 32.5389C35.0275 29.7055 36.5879 25.9382 36.5879 21.9318C36.5879 17.9252 35.0275 14.1581 32.1939 11.3247C29.3616 8.4902 25.5957 6.92927 21.5891 6.92927C17.5832 6.92927 13.8161 8.4902 10.982 11.3245L10.1651 12.1414C9.71441 12.5919 8.98402 12.5919 8.53333 12.1414C8.08264 11.6907 8.08264 10.9601 8.53333 10.5097L9.35026 9.69274C12.6205 6.42274 16.967 4.62158 21.5893 4.62158C26.2126 4.62158 30.5584 6.42274 33.8261 9.69297C37.0954 12.962 38.8959 17.3086 38.8959 21.9316C38.8959 26.5546 37.0954 30.9011 33.8259 34.1707L33.0113 34.9853C32.7858 35.2105 32.4906 35.3231 32.1953 35.3231Z" fill="#0F0F0F"></path><path d="M83.5957 86.7247C83.301 86.7247 83.0061 86.6126 82.7808 86.3878C82.3297 85.938 82.3288 85.2074 82.7785 84.7563L83.5934 83.9393C86.4279 81.1057 87.9884 77.3393 87.9884 73.333C87.9884 69.3266 86.4279 65.5595 83.5943 62.7261C80.7621 59.8918 76.995 58.3309 72.9872 58.3309C68.9827 58.3309 65.2165 59.8918 62.3824 62.7261L61.5641 63.5419C61.1128 63.9917 60.3821 63.9905 59.9324 63.5393C59.4826 63.088 59.4835 62.3576 59.9349 61.9076L60.7518 61.0932C64.0209 57.8243 68.3665 56.0232 72.9874 56.0232C77.6121 56.0232 81.9586 57.8243 85.2265 61.0948C88.4956 64.3639 90.2963 68.7102 90.2963 73.333C90.2963 77.956 88.4956 82.3018 85.2261 85.57L84.4131 86.3855C84.1874 86.6114 83.8913 86.7247 83.5957 86.7247Z" fill="#0F0F0F"></path><path d="M83.6158 105.5H44.7197C41.8565 105.5 39.5273 103.171 39.5273 100.308C39.5273 98.9222 40.0664 97.6183 41.0456 96.6362C42.0303 95.6547 43.3341 95.1154 44.7197 95.1154H55.6789C56.316 95.1154 56.8327 95.6319 56.8327 96.2693C56.8327 96.9066 56.316 97.4231 55.6789 97.4231H44.7197C43.9491 97.4231 43.224 97.7231 42.6773 98.268C42.135 98.8119 41.835 99.5372 41.835 100.308C41.835 101.898 43.129 103.192 44.7197 103.192H83.6158C84.4879 103.192 85.3399 103.023 86.1476 102.689C86.953 102.355 87.675 101.872 88.2923 101.255C89.5422 100.006 90.2301 98.3453 90.2301 96.5783C90.2301 94.8113 89.5422 93.1506 88.2926 91.9022L82.779 86.3863C82.3286 85.9356 82.3286 85.205 82.7793 84.7546C83.23 84.3041 83.9606 84.3041 84.411 84.7548L89.9241 90.2702C91.6097 91.9543 92.5378 94.1946 92.5378 96.5783C92.5378 98.9619 91.6097 101.202 89.9237 102.887C89.0917 103.719 88.1181 104.37 87.0305 104.821C85.9401 105.272 84.792 105.5 83.6158 105.5Z" fill="#0F0F0F"></path><path d="M12.3457 84.7307C8.21032 84.7307 4.8457 81.3663 4.8457 77.2307C4.8457 73.0951 8.21032 69.7307 12.3457 69.7307C16.4811 69.7307 19.8457 73.0951 19.8457 77.2307C19.8457 81.3663 16.4811 84.7307 12.3457 84.7307ZM12.3457 72.0384C9.48255 72.0384 7.1534 74.3678 7.1534 77.2307C7.1534 80.0936 9.48255 82.423 12.3457 82.423C15.2089 82.423 17.538 80.0936 17.538 77.2307C17.538 74.3678 15.2089 72.0384 12.3457 72.0384Z" fill="#0F0F0F"></path><path d="M83.3083 13.1923C80.1271 13.1923 77.5391 10.6042 77.5391 7.42304C77.5391 4.24189 80.1271 1.65381 83.3083 1.65381C86.4894 1.65381 89.0775 4.24189 89.0775 7.42304C89.0775 10.6042 86.4894 13.1923 83.3083 13.1923ZM83.3083 3.9615C81.3996 3.9615 79.8468 5.51435 79.8468 7.42304C79.8468 9.33173 81.3996 10.8846 83.3083 10.8846C85.217 10.8846 86.7698 9.33173 86.7698 7.42304C86.7698 5.51435 85.217 3.9615 83.3083 3.9615Z" fill="#0F0F0F"></path><path d="M94.2685 65.1153C91.4056 65.1153 89.0762 62.7859 89.0762 59.923C89.0762 57.0601 91.4056 54.7307 94.2685 54.7307C97.1314 54.7307 99.4608 57.0601 99.4608 59.923C99.4608 62.7859 97.1314 65.1153 94.2685 65.1153ZM94.2685 57.0384C92.6778 57.0384 91.3839 58.3323 91.3839 59.923C91.3839 61.5137 92.6778 62.8076 94.2685 62.8076C95.8592 62.8076 97.1531 61.5137 97.1531 59.923C97.1531 58.3323 95.8592 57.0384 94.2685 57.0384Z" fill="#0F0F0F"></path><path d="M61.3834 75.4999C61.0882 75.4999 60.7928 75.3873 60.5676 75.1618L13.2599 27.8541C12.8092 27.4034 12.8092 26.6728 13.2599 26.2224C13.7106 25.7719 14.441 25.7719 14.8917 26.2224L62.1994 73.5301C62.6501 73.9805 62.6501 74.7111 62.1994 75.1616C61.9739 75.3873 61.6785 75.4999 61.3834 75.4999Z" fill="#0F0F0F"></path><path d="M90.3335 53.2285C90.1678 53.2285 90.0015 53.1929 89.8459 53.1202L84.1817 50.4775C82.8651 50.7994 81.5064 50.9623 80.1361 50.9623C70.753 50.9623 63.1191 43.3285 63.1191 33.9454C63.1191 33.4495 63.1418 32.954 63.1875 32.4313C63.2331 31.8359 63.7307 31.3663 64.3378 31.3663C64.975 31.3663 65.4917 31.8819 65.4917 32.519V32.5213C65.4917 32.5552 65.4901 32.5889 65.4871 32.6229C65.4465 33.0816 65.4266 33.5141 65.4266 33.9452C65.4266 42.0558 72.0252 48.6544 80.1358 48.6544C81.4466 48.6544 82.7438 48.4825 83.9918 48.1432C84.2551 48.0719 84.535 48.0957 84.7824 48.2111L88.9413 50.1516L88.5349 46.7563C88.4858 46.3485 88.6574 45.9456 88.9854 45.6982C92.7095 42.8879 94.8453 38.6042 94.8453 33.9454C94.8453 25.8348 88.2467 19.2362 80.1361 19.2362C78.4999 19.2362 76.8894 19.5048 75.349 20.0342C74.7474 20.2414 74.0901 19.9209 73.8827 19.3181C73.6754 18.7155 73.996 18.059 74.5988 17.8518C76.3812 17.2391 78.244 16.9285 80.1361 16.9285C89.5191 16.9285 97.153 24.5623 97.153 33.9454C97.153 39.1107 94.8841 43.877 90.9035 47.126L91.4793 51.9373C91.5294 52.3534 91.3496 52.7635 91.0106 53.0092C90.8103 53.1544 90.5726 53.2285 90.3335 53.2285Z" fill="#0F0F0F"></path><path d="M48.9777 36.8C48.7386 36.8 48.5011 36.7257 48.3006 36.5805C47.9614 36.3348 47.7818 35.9245 47.8319 35.5084L48.4097 30.6955C44.428 27.4495 42.1582 22.6838 42.1582 17.5169C42.1582 8.13362 49.792 0.5 59.1749 0.5C68.5582 0.5 76.1918 8.13385 76.1918 17.5169C76.1918 18.0378 76.1683 18.5535 76.1224 19.0499C75.5293 25.7138 71.0503 31.4318 64.7129 33.6124C62.9346 34.2237 61.0716 34.5336 59.1749 34.5336C57.812 34.5336 56.4532 34.3705 55.1302 34.0485L49.4653 36.6915C49.31 36.7642 49.1434 36.8 48.9777 36.8ZM59.1751 2.80769C51.0645 2.80769 44.4661 9.40631 44.4661 17.5169C44.4661 22.1771 46.6024 26.4597 50.3274 29.267C50.6556 29.5144 50.8275 29.9178 50.7786 30.326L50.3706 33.7229L54.5288 31.7829C54.7755 31.6679 55.0552 31.6439 55.3176 31.7145C56.5746 32.054 57.8724 32.2262 59.1751 32.2262C60.8157 32.2262 62.4267 31.9585 63.9624 31.4302C69.4402 29.5455 73.3116 24.6036 73.8244 18.8406C73.8645 18.4105 73.8844 17.9665 73.8844 17.5169C73.8844 9.40631 67.2857 2.80769 59.1751 2.80769Z" fill="#0F0F0F"></path><path d="M80.1366 50.9622H61.3843C60.7469 50.9622 60.2305 50.4455 60.2305 49.8084C60.2305 49.1712 60.7469 48.6545 61.3843 48.6545H80.1366C80.774 48.6545 81.2905 49.1712 81.2905 49.8084C81.2905 50.4455 80.7738 50.9622 80.1366 50.9622Z" fill="#0F0F0F"></path><path d="M63.6914 13.1922H49.8453C49.2081 13.1922 48.6914 12.6755 48.6914 12.0384C48.6914 11.4012 49.2081 10.8845 49.8453 10.8845H63.6914C64.3288 10.8845 64.8453 11.4012 64.8453 12.0384C64.8453 12.6755 64.3288 13.1922 63.6914 13.1922Z" fill="#0F0F0F"></path><path d="M68.3068 17.8077H49.8453C49.2081 17.8077 48.6914 17.291 48.6914 16.6538C48.6914 16.0167 49.2081 15.5 49.8453 15.5H68.3068C68.9442 15.5 69.4606 16.0167 69.4606 16.6538C69.4606 17.291 68.9442 17.8077 68.3068 17.8077Z" fill="#0F0F0F"></path><path d="M68.3068 22.4232H49.8453C49.2081 22.4232 48.6914 21.9065 48.6914 21.2693C48.6914 20.6322 49.2081 20.1155 49.8453 20.1155H68.3068C68.9442 20.1155 69.4606 20.6322 69.4606 21.2693C69.4606 21.9065 68.9442 22.4232 68.3068 22.4232Z" fill="#0F0F0F"></path><path d="M68.9104 92.8078C63.0521 92.8078 57.5467 90.5273 53.4081 86.3864L8.53312 41.5138C-0.0136452 32.9647 -0.0136452 19.0563 8.53312 10.5097C8.98405 10.0593 9.71466 10.0593 10.1649 10.5097L33.011 33.3536L84.4126 84.7551C84.8633 85.2056 84.8633 85.936 84.413 86.3864C80.2744 90.5273 74.7687 92.8078 68.9104 92.8078ZM9.37266 12.981C2.52782 20.6735 2.79182 32.5069 10.1649 39.882L55.0401 84.7551C58.7427 88.4601 63.6687 90.5003 68.9102 90.5003C73.7654 90.5003 78.3491 88.7502 81.9413 85.5478L9.37266 12.981Z" fill="#0F0F0F"></path></svg>