<?xml version="1.0" encoding="UTF-8" standalone="no"?>
<!DOCTYPE svg PUBLIC "-//W3C//DTD SVG 1.1//EN" "http://www.w3.org/Graphics/SVG/1.1/DTD/svg11.dtd">
<svg width="100%" height="100%" viewBox="0 0 614 419" version="1.1" xmlns="http://www.w3.org/2000/svg" xmlns:xlink="http://www.w3.org/1999/xlink" xml:space="preserve" xmlns:serif="http://www.serif.com/" style="fill-rule:evenodd;clip-rule:evenodd;stroke-linecap:round;stroke-linejoin:round;stroke-miterlimit:1.5;">
    <path d="M182.601,43.201C226.818,43.201 281.897,4.636 325.843,9.528C400.297,17.817 413.347,49.767 456.278,71.555C541.278,114.693 588.883,97.676 609.175,132.05C620.669,151.519 592.967,230.418 578.034,277.801C558.125,340.976 538.462,410.105 423.861,417.677C353.298,422.34 340.736,405.47 311.339,389.602C281.462,373.475 259.244,343.887 227.57,331.659C168.501,308.856 125.853,325.547 90.499,304.347C29.24,267.615 30.057,232.924 15.445,204.463C4.483,183.114 0.439,155.393 2.823,133.582C5.204,111.795 11.656,85.967 29.748,73.597C60.612,52.496 65.609,43.201 182.601,43.201Z" stroke="#f8b3268f" style="fill:none;stroke-width:1px;"/>
    <path d="M36.877,140.847C50.971,103.907 65.677,63.19 91.246,35.427C105.315,20.152 114.31,1.859 213.574,2C255.902,2.06 281.031,17.966 307,35.734C334.608,54.623 360.28,82.689 388.291,93.809C416.302,104.929 493.456,99.723 525.311,122.398C553.84,142.704 574.777,175.455 584.735,209.027C595.455,245.171 620.028,298.837 589.635,339.262C552.41,388.775 475.401,377.986 439.138,382.961C359.661,393.866 348.69,408.032 304.648,415.966C279.373,420.519 251.78,416.023 224.822,402.042C196.926,387.574 173.581,363.588 148.148,349.268C119.936,333.384 74.189,325.581 36.783,316.881C13.948,311.569 -0.987,288.759 1,271.964C5.965,230.003 21.836,180.27 36.877,140.847Z" stroke="#F8B326" style="fill:none;stroke-width:1.49px;"/>
</svg>
