<?xml version="1.0" encoding="utf-8"?>
<!-- Uploaded to: SVG Repo, www.svgrepo.com, Generator: SVG Repo Mixer Tools -->
<svg width="800px" height="800px" viewBox="0 0 1024 1024" class="icon"  version="1.1" xmlns="http://www.w3.org/2000/svg"><path d="M571.2 257.6l20-108.8H432.8l20 108.8-89.6 581.6L512 992l148.8-152.8z" fill="#EC7BB0" /><path d="M591.2 148.8H432.8l20 108.8h118.4z" fill="#0D1014" /><path d="M512 1000c-2.4 0-4-0.8-5.6-2.4l-148.8-152.8c-1.6-1.6-2.4-4-2.4-7.2l89.6-580.8-20-107.2c-0.8-2.4 0-4.8 1.6-6.4s4-3.2 6.4-3.2H592c2.4 0 4.8 0.8 6.4 3.2s2.4 4 1.6 6.4l-20 107.2 89.6 580.8c0 2.4-0.8 4.8-2.4 7.2l-148.8 152.8c-2.4 1.6-4 2.4-6.4 2.4z m-140-163.2l140 144 140-144-88.8-578.4V256l18.4-99.2H442.4L460.8 256v2.4l-88.8 578.4z" fill="#6A576D" /><path d="M571.2 265.6H452.8c-4 0-7.2-2.4-8-6.4L424 150.4c-0.8-2.4 0-4.8 1.6-6.4s4-3.2 6.4-3.2h159.2c2.4 0 4.8 0.8 6.4 3.2s2.4 4 1.6 6.4l-20.8 108.8c0 3.2-3.2 6.4-7.2 6.4z m-112-16h104.8l17.6-92.8H442.4l16.8 92.8z" fill="#6A576D" /><path d="M710.4 32L512 148.8l81.6 153.6L728 108.8z" fill="#FFFFFF" /><path d="M593.6 310.4c-3.2 0-5.6-1.6-7.2-4L504.8 152c-2.4-4-0.8-8.8 3.2-10.4L706.4 24.8c2.4-0.8 4.8-0.8 7.2 0 2.4 0.8 4 3.2 4.8 5.6l17.6 76.8c0.8 2.4 0 4.8-1.6 6.4L600 307.2c-0.8 1.6-3.2 3.2-6.4 3.2z m-71.2-159.2l72 135.2 124.8-180-14.4-62.4-182.4 107.2z" fill="#6A576D" /><path d="M313.6 32L512 148.8 430.4 302.4 296 108.8z" fill="#FFFFFF" /><path d="M430.4 310.4c-2.4 0-4.8-1.6-6.4-3.2L289.6 113.6c-1.6-1.6-1.6-4-1.6-6.4l17.6-76.8c0.8-2.4 2.4-4.8 4.8-5.6 2.4-0.8 4.8-0.8 7.2 0l198.4 116.8c4 2.4 4.8 7.2 3.2 10.4L437.6 306.4c-1.6 2.4-4 4-7.2 4zM304.8 107.2l124.8 180 72-135.2L319.2 44.8l-14.4 62.4z" fill="#6A576D" /></svg>