<?xml version="1.0" encoding="iso-8859-1"?>
<!-- Uploaded to: SVG Repo, www.svgrepo.com, Generator: SVG Repo Mixer Tools -->
<svg version="1.1" id="Layer_1" xmlns="http://www.w3.org/2000/svg" xmlns:xlink="http://www.w3.org/1999/xlink" 
	 viewBox="0 0 512 512" xml:space="preserve">
<circle style="fill:#00BEA5;" cx="256" cy="256" r="256"/>
<g>
	<path style="fill:#00A59A;" d="M192,278.727c0,0-79.151,86.988-79.151,85.943l147.278,147.278C399.607,509.74,512,396.005,512,256
		c0-9.532-0.538-18.937-1.553-28.198L410.122,127.478c-0.352-0.352-106.167,77.236-175.143,127.878L131.918,152.294
		c0,0-28.585,6.782-29.99,6.582L213.893,270.84c-6.391,4.694-12.175,8.943-17.168,12.612L192,278.727z"/>
	<path style="fill:#00A59A;" d="M101.929,158.876l-0.051-0.051C101.848,158.854,101.875,158.868,101.929,158.876z"/>
</g>
<rect x="251.298" y="356.31" style="fill:#FF4F4F;" width="9.404" height="42.841"/>
<rect x="255.655" y="356.31" style="fill:#F23F44;" width="5.05" height="42.841"/>
<rect x="112.849" y="143.151" style="fill:#FFFFFF;" width="286.302" height="221.518"/>
<rect x="255.655" y="143.151" style="fill:#E0F2FF;" width="143.496" height="221.518"/>
<rect x="101.878" y="127.478" style="fill:#DF2E18;" width="308.245" height="31.347"/>
<rect x="255.655" y="127.478" style="fill:#C31B0E;" width="154.467" height="31.347"/>
<circle style="fill:#FFD153;" cx="256" cy="405.42" r="20.898"/>
<path style="fill:#F7CB09;" d="M256,384.522c-0.118,0-0.231,0.016-0.348,0.018v41.76c0.117,0.002,0.231,0.018,0.348,0.018
	c11.542,0,20.898-9.356,20.898-20.898S267.542,384.522,256,384.522z"/>
<rect x="318.694" y="203.755" style="fill:#FF4F4F;" width="31.347" height="127.478"/>
<rect x="214.204" y="233.012" style="fill:#FF8468;" width="31.347" height="98.22"/>
<g>
	<rect x="266.449" y="268.539" style="fill:#FFB541;" width="31.347" height="62.694"/>
	<rect x="161.959" y="288.392" style="fill:#FFB541;" width="31.347" height="42.841"/>
</g>
</svg>