<?xml version="1.0" encoding="UTF-8" standalone="no"?>
<!DOCTYPE svg PUBLIC "-//W3C//DTD SVG 1.1//EN" "http://www.w3.org/Graphics/SVG/1.1/DTD/svg11.dtd">
<svg width="100%" height="100%" viewBox="0 0 644 405" version="1.1" xmlns="http://www.w3.org/2000/svg" xmlns:xlink="http://www.w3.org/1999/xlink" xml:space="preserve" xmlns:serif="http://www.serif.com/" style="fill-rule:evenodd;clip-rule:evenodd;stroke-linecap:round;stroke-linejoin:round;stroke-miterlimit:1.5;">
    <g>
        <path d="M272.366,405.008L94.328,405.008L94.328,57.197L272.366,57.197L272.366,405.008ZM97.306,402.027L269.388,402.027L269.388,60.178L97.306,60.178L97.306,402.027Z" style="fill:rgb(221,231,227);fill-rule:nonzero;"/>
        <path d="M106.967,29.201L124.432,29.201L120.072,21.624L115.703,14.048L106.967,29.201Z" style="fill:rgb(5,14,18);fill-rule:nonzero;"/>
        <path d="M115.949,18.454C115.758,18.454 115.574,18.378 115.439,18.243C115.304,18.108 115.229,17.925 115.229,17.734L115.229,-46.973C115.229,-47.124 115.276,-47.27 115.362,-47.393C115.449,-47.516 115.57,-47.609 115.711,-47.661C115.856,-47.71 116.011,-47.714 116.158,-47.671C116.304,-47.629 116.434,-47.542 116.529,-47.424C130.362,-29.986 144.719,-21.516 159.215,-22.262C181.907,-23.417 197.319,-47.121 197.466,-47.366C197.52,-47.447 197.589,-47.516 197.669,-47.57C197.75,-47.624 197.84,-47.662 197.935,-47.681C198.03,-47.7 198.128,-47.7 198.223,-47.681C198.318,-47.662 198.408,-47.625 198.489,-47.571C198.569,-47.517 198.638,-47.448 198.692,-47.368C198.746,-47.287 198.784,-47.197 198.803,-47.102C198.822,-47.007 198.822,-46.909 198.803,-46.814C198.784,-46.719 198.747,-46.628 198.693,-46.547C198.529,-46.302 182.733,-21.975 159.296,-20.779C144.768,-20.042 130.436,-28.151 116.685,-44.893L116.685,17.734C116.685,17.83 116.666,17.925 116.628,18.013C116.591,18.102 116.537,18.182 116.468,18.249C116.4,18.316 116.318,18.369 116.229,18.404C116.14,18.44 116.044,18.457 115.949,18.454Z" style="fill:rgb(5,14,18);fill-rule:nonzero;"/>
        <rect x="465.561" y="52.954" width="74.63" height="95.667" style="fill:rgb(248,179,38);fill-rule:nonzero;"/>
        <rect x="465.561" y="160.957" width="74.63" height="59.907" style="fill:rgb(248,179,38);fill-rule:nonzero;"/>
        <path d="M643.084,404.435L0.924,404.435C0.681,404.435 0.448,404.338 0.277,404.166C0.105,403.994 0.008,403.761 0.008,403.517C0.008,403.274 0.105,403.041 0.277,402.869C0.448,402.697 0.681,402.6 0.924,402.6L643.084,402.6C643.327,402.6 643.56,402.697 643.732,402.869C643.904,403.041 644,403.274 644,403.517C644,403.761 643.904,403.994 643.732,404.166C643.56,404.338 643.327,404.435 643.084,404.435Z" style="fill:rgb(5,14,18);fill-rule:nonzero;"/>
        <path d="M527.536,19.175C527.441,19.176 527.347,19.159 527.259,19.123C527.171,19.087 527.092,19.034 527.025,18.967C526.957,18.9 526.904,18.82 526.869,18.732C526.833,18.644 526.815,18.549 526.816,18.455L526.816,-15.029L526.055,-15.152C525.867,-15.182 525.698,-15.287 525.586,-15.442C525.474,-15.597 525.428,-15.79 525.458,-15.979C525.489,-16.168 525.593,-16.337 525.748,-16.45C525.903,-16.562 526.096,-16.608 526.284,-16.577L528.256,-16.258L528.256,18.438C528.259,18.535 528.243,18.631 528.208,18.72C528.173,18.81 528.121,18.892 528.053,18.961C527.986,19.03 527.906,19.084 527.817,19.121C527.728,19.158 527.632,19.177 527.536,19.175Z" style="fill:rgb(5,14,18);fill-rule:nonzero;"/>
        <path d="M475.64,10.764C475.544,10.765 475.45,10.747 475.362,10.711C475.273,10.675 475.193,10.622 475.125,10.555C475.058,10.488 475.004,10.409 474.967,10.32C474.93,10.233 474.912,10.138 474.912,10.043L474.912,-15.848C474.931,-16.027 475.015,-16.193 475.149,-16.313C475.282,-16.433 475.456,-16.5 475.636,-16.5C475.815,-16.5 475.989,-16.433 476.122,-16.313C476.256,-16.193 476.34,-16.027 476.359,-15.848L476.359,10.043C476.361,10.138 476.343,10.232 476.307,10.32C476.271,10.408 476.218,10.488 476.151,10.555C476.084,10.622 476.004,10.675 475.916,10.711C475.829,10.747 475.735,10.765 475.64,10.764Z" style="fill:rgb(5,14,18);fill-rule:nonzero;"/>
        <path d="M519.004,30.863L536.477,30.863L532.109,23.287L527.741,15.71L523.372,23.287L519.004,30.863Z" style="fill:rgb(5,14,18);fill-rule:nonzero;"/>
        <path d="M466.903,19.921L484.368,19.921L480.008,12.352L475.64,4.776L471.271,12.352L466.903,19.921Z" style="fill:rgb(5,14,18);fill-rule:nonzero;"/>
        <path d="M441.863,278.101L441.863,402.346L445.724,402.346L449.896,390.265L478.806,390.265L481.309,402.346L493.939,402.346L497.113,388.537L535.029,388.537L535.029,278.101L441.863,278.101Z" style="fill:rgb(5,14,18);fill-rule:nonzero;"/>
        <path d="M485.055,278.101L485.055,402.346L493.939,402.346L497.113,388.537L567.775,388.537L574.663,402.346L585.003,402.346L585.003,278.101L485.055,278.101Z" style="fill:rgb(248,179,38);fill-rule:nonzero;"/>
        <path d="M576.005,320.283L495.764,320.283C495.004,320.283 494.276,319.981 493.739,319.443C493.202,318.906 492.9,318.177 492.9,317.416L492.9,286.292C492.9,285.531 493.202,284.802 493.739,284.264C494.276,283.727 495.004,283.425 495.764,283.425L576.005,283.425C576.764,283.425 577.492,283.727 578.029,284.264C578.566,284.802 578.868,285.531 578.868,286.292L578.868,317.416C578.868,318.177 578.566,318.906 578.029,319.443C577.492,319.981 576.764,320.283 576.005,320.283ZM495.764,284.907C495.408,284.909 495.068,285.052 494.817,285.303C494.566,285.555 494.424,285.895 494.422,286.251L494.422,317.375C494.424,317.731 494.566,318.071 494.817,318.323C495.068,318.574 495.408,318.717 495.764,318.719L576.005,318.719C576.359,318.717 576.698,318.574 576.948,318.322C577.198,318.071 577.338,317.73 577.338,317.375L577.338,286.251C577.338,285.896 577.198,285.555 576.948,285.304C576.698,285.052 576.359,284.909 576.005,284.907L495.764,284.907Z" style="fill:rgb(5,14,18);fill-rule:nonzero;"/>
        <path d="M576.005,362.564L495.764,362.564C495.006,362.564 494.279,362.263 493.742,361.727C493.205,361.191 492.903,360.464 492.9,359.705L492.9,328.523C492.9,327.763 493.202,327.034 493.739,326.496C494.276,325.958 495.004,325.656 495.764,325.656L576.005,325.656C576.764,325.656 577.492,325.958 578.029,326.496C578.566,327.034 578.868,327.763 578.868,328.523L578.868,359.697C578.868,360.457 578.566,361.186 578.029,361.724C577.492,362.262 576.764,362.564 576.005,362.564ZM495.764,327.196C495.409,327.196 495.069,327.337 494.818,327.587C494.566,327.837 494.424,328.176 494.422,328.531L494.422,359.697C494.424,360.052 494.566,360.391 494.818,360.642C495.069,360.892 495.409,361.032 495.764,361.032L576.005,361.032C576.358,361.032 576.698,360.891 576.948,360.641C577.198,360.391 577.338,360.051 577.338,359.697L577.338,328.523C577.338,328.169 577.198,327.829 576.948,327.579C576.698,327.329 576.358,327.188 576.005,327.188L495.764,327.196Z" style="fill:rgb(5,14,18);fill-rule:nonzero;"/>
        <path d="M550.572,302.345C548.792,303.839 546.727,304.954 544.502,305.622C543.391,305.972 542.253,306.229 541.099,306.392C539.937,306.534 538.768,306.602 537.598,306.596C536.445,306.548 535.296,306.441 534.154,306.277C533.009,306.087 531.88,305.813 530.775,305.458C528.564,304.8 526.491,303.745 524.657,302.345C524.648,302.338 524.641,302.33 524.636,302.32C524.632,302.31 524.629,302.299 524.629,302.288C524.629,302.277 524.632,302.266 524.636,302.256C524.641,302.246 524.648,302.238 524.657,302.231C524.671,302.22 524.688,302.214 524.706,302.214C524.723,302.214 524.741,302.22 524.755,302.231C526.8,303.076 528.919,303.726 531.086,304.172C533.243,304.6 535.433,304.836 537.631,304.876C542.064,305.001 546.465,304.095 550.49,302.231C550.5,302.225 550.511,302.222 550.523,302.221C550.534,302.22 550.546,302.222 550.557,302.226C550.567,302.23 550.577,302.236 550.585,302.244C550.594,302.251 550.6,302.261 550.605,302.272C550.614,302.286 550.619,302.303 550.619,302.321C550.619,302.338 550.614,302.355 550.605,302.37L550.572,302.345Z" style="fill:rgb(5,14,18);fill-rule:nonzero;"/>
        <path d="M550.572,344.618C548.792,346.112 546.727,347.227 544.502,347.894C543.391,348.244 542.253,348.502 541.099,348.664C539.938,348.81 538.768,348.878 537.598,348.869C536.445,348.82 535.296,348.714 534.154,348.549C533.009,348.359 531.88,348.085 530.775,347.73C528.563,347.075 526.489,346.021 524.657,344.618C524.648,344.61 524.641,344.601 524.636,344.59C524.631,344.579 524.629,344.568 524.629,344.556C524.629,344.545 524.631,344.533 524.636,344.523C524.641,344.512 524.648,344.503 524.657,344.495C524.671,344.484 524.688,344.479 524.706,344.479C524.723,344.479 524.741,344.484 524.755,344.495C526.8,345.34 528.92,345.99 531.086,346.436C533.242,346.869 535.432,347.104 537.631,347.141C542.064,347.265 546.465,346.359 550.49,344.495C550.508,344.49 550.527,344.49 550.545,344.496C550.563,344.503 550.578,344.514 550.589,344.529C550.6,344.545 550.605,344.563 550.605,344.582C550.605,344.601 550.599,344.619 550.588,344.634L550.572,344.618Z" style="fill:rgb(5,14,18);fill-rule:nonzero;"/>
        <rect x="251.17" y="22.648" width="179.38" height="229.955" style="fill:rgb(248,179,38);fill-rule:nonzero;"/>
        <path d="M430.558,253.48L251.17,253.48C251.056,253.48 250.942,253.457 250.837,253.413C250.731,253.369 250.635,253.304 250.554,253.223C250.474,253.141 250.41,253.044 250.367,252.938C250.324,252.832 250.302,252.718 250.303,252.603L250.303,22.648C250.302,22.534 250.324,22.42 250.367,22.314C250.41,22.207 250.474,22.111 250.554,22.029C250.635,21.948 250.731,21.883 250.837,21.839C250.942,21.795 251.056,21.772 251.17,21.772L430.558,21.772C430.79,21.772 431.012,21.864 431.177,22.029C431.341,22.193 431.433,22.416 431.433,22.648L431.433,252.603C431.433,252.836 431.341,253.059 431.177,253.223C431.012,253.387 430.79,253.48 430.558,253.48ZM252.062,251.727L429.682,251.727L429.682,23.525L252.062,23.525L252.062,251.727Z" style="fill:rgb(5,14,18);fill-rule:nonzero;"/>
        <rect x="268.496" y="39.652" width="144.728" height="195.939" style="fill:white;fill-rule:nonzero;"/>
        <path d="M414.099,236.468L267.605,236.468L267.605,38.784L414.099,38.784L414.099,236.468ZM269.372,234.723L412.397,234.723L412.397,40.529L269.372,40.529L269.372,234.723Z" style="fill:rgb(5,14,18);fill-rule:nonzero;"/>
        <path d="M268.333,40.529C268.217,40.53 268.103,40.508 267.996,40.465C267.889,40.421 267.793,40.357 267.711,40.275L250.728,23.263C250.647,23.183 250.582,23.087 250.538,22.982C250.493,22.876 250.471,22.763 250.471,22.648C250.471,22.534 250.493,22.421 250.538,22.315C250.582,22.21 250.647,22.114 250.728,22.034C250.809,21.952 250.905,21.887 251.011,21.843C251.117,21.798 251.231,21.775 251.346,21.775C251.461,21.775 251.575,21.798 251.681,21.843C251.787,21.887 251.883,21.952 251.964,22.034L268.946,39.03C269.066,39.153 269.148,39.308 269.181,39.476C269.214,39.645 269.197,39.82 269.131,39.978C269.066,40.137 268.955,40.273 268.813,40.37C268.671,40.466 268.504,40.519 268.333,40.521L268.333,40.529Z" style="fill:rgb(5,14,18);fill-rule:nonzero;"/>
        <path d="M413.06,40.529C412.824,40.528 412.597,40.434 412.43,40.267C412.348,40.186 412.283,40.09 412.239,39.983C412.194,39.877 412.172,39.763 412.172,39.648C412.172,39.533 412.194,39.419 412.239,39.313C412.283,39.207 412.348,39.111 412.43,39.03L430.1,22.018C430.18,21.936 430.276,21.871 430.382,21.826C430.489,21.782 430.602,21.759 430.717,21.759C430.832,21.759 430.946,21.782 431.052,21.826C431.158,21.871 431.254,21.936 431.335,22.018C431.496,22.183 431.587,22.405 431.587,22.636C431.587,22.867 431.496,23.089 431.335,23.254L413.665,40.267C413.504,40.428 413.288,40.521 413.06,40.529Z" style="fill:rgb(5,14,18);fill-rule:nonzero;"/>
        <path d="M251.342,253.48C251.113,253.477 250.893,253.386 250.728,253.226C250.647,253.145 250.582,253.049 250.537,252.943C250.493,252.837 250.47,252.723 250.47,252.608C250.47,252.492 250.493,252.379 250.537,252.272C250.582,252.166 250.647,252.07 250.728,251.989L267.711,234.977C267.878,234.83 268.095,234.752 268.317,234.76C268.539,234.767 268.75,234.859 268.907,235.016C269.064,235.173 269.156,235.385 269.163,235.607C269.17,235.83 269.093,236.046 268.946,236.214L251.964,253.226C251.796,253.386 251.574,253.477 251.342,253.48Z" style="fill:rgb(5,14,18);fill-rule:nonzero;"/>
        <path d="M359.282,370.754L359.282,377.307C359.282,378.071 359.432,378.827 359.724,379.532C360.016,380.238 360.444,380.879 360.983,381.419C361.523,381.959 362.163,382.387 362.868,382.68C363.572,382.972 364.327,383.122 365.09,383.122L443.074,383.122C444.614,383.122 446.091,382.51 447.181,381.419C448.27,380.329 448.882,378.849 448.882,377.307L448.882,370.754C448.882,369.212 448.27,367.733 447.181,366.642C446.091,365.552 444.614,364.939 443.074,364.939L365.09,364.939C363.55,364.939 362.072,365.552 360.983,366.642C359.894,367.733 359.282,369.212 359.282,370.754Z" style="fill:white;fill-rule:nonzero;"/>
        <path d="M359.331,352.596L359.331,359.148C359.333,360.69 359.946,362.168 361.035,363.258C362.123,364.348 363.599,364.962 365.139,364.964L443.123,364.964C443.886,364.965 444.642,364.815 445.347,364.523C446.052,364.231 446.693,363.803 447.232,363.263C447.772,362.723 448.199,362.081 448.491,361.375C448.782,360.669 448.932,359.912 448.931,359.148L448.931,352.596C448.931,351.053 448.319,349.574 447.23,348.484C446.14,347.393 444.663,346.78 443.123,346.78L365.139,346.78C363.599,346.78 362.122,347.393 361.032,348.484C359.943,349.574 359.331,351.053 359.331,352.596Z" style="fill:white;fill-rule:nonzero;"/>
        <path d="M359.282,388.93L359.282,395.482C359.28,396.247 359.429,397.004 359.72,397.71C360.011,398.417 360.439,399.059 360.978,399.599C361.518,400.14 362.159,400.568 362.865,400.859C363.571,401.151 364.327,401.3 365.09,401.298L443.074,401.298C444.191,401.296 445.285,400.973 446.223,400.366C447.162,399.759 447.906,398.893 448.366,397.874C448.708,397.123 448.884,396.307 448.882,395.482L448.882,388.93C448.883,388.166 448.733,387.409 448.442,386.703C448.15,385.997 447.723,385.355 447.183,384.815C446.643,384.275 446.003,383.847 445.298,383.555C444.592,383.263 443.837,383.113 443.074,383.114L365.09,383.114C364.327,383.113 363.571,383.263 362.866,383.555C362.161,383.847 361.52,384.275 360.981,384.815C360.441,385.355 360.014,385.997 359.722,386.703C359.431,387.409 359.281,388.166 359.282,388.93Z" style="fill:white;fill-rule:nonzero;"/>
        <g opacity="0.34">
            <rect x="408.054" y="346.78" width="31.06" height="54.501" style="fill:rgb(150,184,255);fill-opacity:0.34;fill-rule:nonzero;"/>
        </g>
        <rect x="368.002" y="346.78" width="27.487" height="54.501" style="fill:rgb(248,179,38);fill-rule:nonzero;"/>
        <path d="M443.074,384.097L365.09,384.097C363.29,384.095 361.564,383.378 360.292,382.104C359.019,380.829 358.303,379.101 358.301,377.299L358.301,370.747C358.303,368.944 359.019,367.216 360.292,365.942C361.564,364.667 363.29,363.95 365.09,363.948L443.074,363.948C444.874,363.95 446.6,364.667 447.872,365.942C449.145,367.216 449.861,368.944 449.863,370.747L449.863,377.299C449.861,379.101 449.145,380.829 447.872,382.104C446.6,383.378 444.874,384.095 443.074,384.097ZM365.09,365.93C364.456,365.928 363.827,366.052 363.241,366.294C362.654,366.536 362.121,366.892 361.673,367.341C361.224,367.79 360.869,368.324 360.627,368.911C360.385,369.498 360.262,370.128 360.264,370.763L360.264,377.316C360.266,378.597 360.775,379.824 361.68,380.73C362.584,381.636 363.811,382.146 365.09,382.148L443.074,382.148C444.353,382.146 445.58,381.636 446.484,380.73C447.389,379.824 447.898,378.597 447.9,377.316L447.9,370.763C447.906,369.668 447.536,368.604 446.853,367.749C446.4,367.181 445.825,366.722 445.171,366.407C444.517,366.092 443.8,365.929 443.074,365.93L365.09,365.93Z" style="fill:rgb(5,14,18);fill-rule:nonzero;"/>
        <path d="M443.123,365.93L365.139,365.93C363.341,365.926 361.617,365.208 360.346,363.934C359.075,362.66 358.36,360.933 358.358,359.132L358.358,352.58C358.358,350.778 359.072,349.05 360.344,347.775C361.615,346.501 363.34,345.783 365.139,345.781L443.123,345.781C444.923,345.783 446.649,346.5 447.922,347.775C449.194,349.049 449.91,350.777 449.913,352.58L449.913,359.132C449.91,360.935 449.194,362.662 447.922,363.937C446.649,365.211 444.923,365.928 443.123,365.93ZM365.139,347.763C363.859,347.763 362.632,348.273 361.727,349.179C360.821,350.085 360.313,351.314 360.313,352.596L360.313,359.149C360.313,360.43 360.821,361.659 361.727,362.566C362.632,363.472 363.859,363.981 365.139,363.981L443.123,363.981C443.757,363.982 444.386,363.858 444.972,363.616C445.559,363.373 446.092,363.017 446.541,362.569C446.99,362.12 447.346,361.587 447.589,361C447.832,360.413 447.957,359.784 447.957,359.149L447.957,352.596C447.955,351.314 447.445,350.084 446.539,349.178C445.632,348.272 444.404,347.763 443.123,347.763L365.139,347.763Z" style="fill:rgb(5,14,18);fill-rule:nonzero;"/>
        <path d="M443.074,402.264L365.09,402.264C364.046,402.267 363.015,402.026 362.08,401.56C360.946,400.997 359.992,400.128 359.325,399.051C358.657,397.975 358.302,396.733 358.301,395.466L358.301,388.914C358.301,387.111 359.016,385.381 360.289,384.106C361.563,382.831 363.289,382.115 365.09,382.115L443.074,382.115C444.874,382.117 446.6,382.834 447.872,384.109C449.145,385.383 449.861,387.111 449.863,388.914L449.863,395.466C449.865,396.433 449.658,397.388 449.258,398.267C448.721,399.459 447.852,400.47 446.755,401.179C445.658,401.888 444.38,402.265 443.074,402.264ZM365.09,384.097C363.809,384.097 362.581,384.606 361.675,385.512C360.768,386.418 360.258,387.647 360.256,388.93L360.256,395.482C360.259,396.385 360.513,397.268 360.99,398.034C361.466,398.799 362.147,399.416 362.955,399.815C363.617,400.149 364.349,400.32 365.09,400.315L443.074,400.315C443.832,400.318 444.581,400.142 445.258,399.799C446.239,399.298 447.021,398.478 447.475,397.473C447.759,396.848 447.904,396.169 447.9,395.482L447.9,388.93C447.9,387.648 447.392,386.419 446.487,385.513C445.581,384.607 444.354,384.097 443.074,384.097L365.09,384.097Z" style="fill:rgb(5,14,18);fill-rule:nonzero;"/>
        <path d="M359.282,315.876L359.282,322.429C359.282,323.193 359.432,323.949 359.724,324.654C360.016,325.36 360.444,326.001 360.983,326.541C361.523,327.081 362.163,327.51 362.868,327.802C363.572,328.094 364.327,328.244 365.09,328.244L443.074,328.244C444.614,328.244 446.091,327.632 447.181,326.541C448.27,325.451 448.882,323.971 448.882,322.429L448.882,315.876C448.882,314.334 448.27,312.855 447.181,311.764C446.091,310.674 444.614,310.061 443.074,310.061L365.09,310.061C363.55,310.061 362.072,310.674 360.983,311.764C359.894,312.855 359.282,314.334 359.282,315.876Z" style="fill:white;fill-rule:nonzero;"/>
        <path d="M359.331,297.718L359.331,304.27C359.333,305.812 359.946,307.29 361.035,308.38C362.123,309.47 363.599,310.084 365.139,310.086L443.123,310.086C443.886,310.087 444.642,309.937 445.347,309.645C446.052,309.353 446.693,308.925 447.232,308.385C447.772,307.845 448.199,307.203 448.491,306.497C448.782,305.791 448.932,305.034 448.931,304.27L448.931,297.718C448.931,296.175 448.319,294.696 447.23,293.606C446.14,292.515 444.663,291.902 443.123,291.902L365.139,291.902C363.599,291.902 362.122,292.515 361.032,293.606C359.943,294.696 359.331,296.175 359.331,297.718Z" style="fill:white;fill-rule:nonzero;"/>
        <path d="M359.282,334.052L359.282,340.604C359.28,341.369 359.429,342.126 359.72,342.832C360.011,343.539 360.439,344.181 360.978,344.721C361.518,345.262 362.159,345.69 362.865,345.982C363.571,346.273 364.327,346.422 365.09,346.42L443.074,346.42C444.191,346.418 445.285,346.095 446.223,345.488C447.162,344.881 447.906,344.015 448.366,342.996C448.708,342.245 448.884,341.429 448.882,340.604L448.882,334.052C448.883,333.288 448.733,332.531 448.442,331.825C448.15,331.119 447.723,330.477 447.183,329.937C446.643,329.397 446.003,328.969 445.298,328.677C444.592,328.385 443.837,328.235 443.074,328.236L365.09,328.236C364.327,328.235 363.571,328.385 362.866,328.677C362.161,328.969 361.52,329.397 360.981,329.937C360.441,330.477 360.014,331.119 359.722,331.825C359.431,332.531 359.281,333.288 359.282,334.052Z" style="fill:white;fill-rule:nonzero;"/>
        <g opacity="0.34">
            <rect x="408.054" y="291.902" width="31.06" height="54.502" style="fill:rgb(150,184,255);fill-opacity:0.34;fill-rule:nonzero;"/>
        </g>
        <rect x="368.002" y="291.902" width="27.487" height="54.502" style="fill:rgb(248,179,38);fill-rule:nonzero;"/>
        <path d="M443.074,329.22L365.09,329.22C363.29,329.217 361.564,328.5 360.292,327.226C359.019,325.952 358.303,324.224 358.301,322.421L358.301,315.869C358.303,314.066 359.019,312.338 360.292,311.064C361.564,309.789 363.29,309.072 365.09,309.07L443.074,309.07C444.874,309.072 446.6,309.789 447.872,311.064C449.145,312.338 449.861,314.066 449.863,315.869L449.863,322.421C449.861,324.224 449.145,325.952 447.872,327.226C446.6,328.5 444.874,329.217 443.074,329.22ZM365.09,311.052C364.456,311.05 363.827,311.174 363.241,311.416C362.654,311.658 362.121,312.014 361.673,312.463C361.224,312.912 360.869,313.446 360.627,314.033C360.385,314.62 360.262,315.25 360.264,315.885L360.264,322.438C360.266,323.719 360.775,324.947 361.68,325.852C362.584,326.758 363.811,327.268 365.09,327.27L443.074,327.27C444.353,327.268 445.58,326.758 446.484,325.852C447.389,324.947 447.898,323.719 447.9,322.438L447.9,315.885C447.906,314.79 447.536,313.726 446.853,312.871C446.4,312.303 445.825,311.844 445.171,311.529C444.517,311.214 443.8,311.051 443.074,311.052L365.09,311.052Z" style="fill:rgb(5,14,18);fill-rule:nonzero;"/>
        <path d="M443.123,311.053L365.139,311.053C363.341,311.048 361.617,310.33 360.346,309.056C359.075,307.782 358.36,306.055 358.358,304.254L358.358,297.702C358.358,295.9 359.072,294.172 360.344,292.897C361.615,291.623 363.34,290.905 365.139,290.903L443.123,290.903C444.923,290.905 446.649,291.622 447.922,292.897C449.194,294.171 449.91,295.899 449.913,297.702L449.913,304.254C449.91,306.057 449.194,307.785 447.922,309.059C446.649,310.333 444.923,311.05 443.123,311.053ZM365.139,292.885C363.859,292.885 362.632,293.395 361.727,294.301C360.821,295.207 360.313,296.436 360.313,297.718L360.313,304.271C360.313,305.552 360.821,306.781 361.727,307.688C362.632,308.594 363.859,309.103 365.139,309.103L443.123,309.103C443.757,309.104 444.386,308.98 444.972,308.738C445.559,308.495 446.092,308.139 446.541,307.691C446.99,307.242 447.346,306.709 447.589,306.122C447.832,305.535 447.957,304.906 447.957,304.271L447.957,297.718C447.955,296.436 447.445,295.206 446.539,294.3C445.632,293.394 444.404,292.885 443.123,292.885L365.139,292.885Z" style="fill:rgb(5,14,18);fill-rule:nonzero;"/>
        <path d="M443.074,347.386L365.09,347.386C364.046,347.389 363.015,347.148 362.08,346.682C360.946,346.119 359.992,345.25 359.325,344.173C358.657,343.097 358.302,341.855 358.301,340.588L358.301,334.036C358.301,332.233 359.016,330.503 360.289,329.228C361.563,327.954 363.289,327.237 365.09,327.237L443.074,327.237C444.874,327.239 446.6,327.956 447.872,329.231C449.145,330.505 449.861,332.233 449.863,334.036L449.863,340.588C449.865,341.555 449.658,342.51 449.258,343.389C448.721,344.581 447.852,345.592 446.755,346.301C445.658,347.01 444.38,347.387 443.074,347.386ZM365.09,329.219C363.809,329.219 362.581,329.728 361.675,330.634C360.768,331.54 360.258,332.77 360.256,334.052L360.256,340.605C360.259,341.507 360.513,342.39 360.99,343.156C361.466,343.921 362.147,344.538 362.955,344.937C363.617,345.271 364.349,345.442 365.09,345.437L443.074,345.437C443.832,345.441 444.581,345.264 445.258,344.921C446.239,344.42 447.021,343.6 447.475,342.595C447.759,341.97 447.904,341.291 447.9,340.605L447.9,334.052C447.9,332.77 447.392,331.541 446.487,330.635C445.581,329.729 444.354,329.219 443.074,329.219L365.09,329.219Z" style="fill:rgb(5,14,18);fill-rule:nonzero;"/>
        <path d="M295.884,370.754L295.884,377.307C295.884,378.849 296.496,380.329 297.585,381.419C298.675,382.51 300.152,383.122 301.692,383.122L379.676,383.122C381.216,383.122 382.694,382.51 383.783,381.419C384.872,380.329 385.484,378.849 385.484,377.307L385.484,370.754C385.484,369.212 384.872,367.733 383.783,366.642C382.694,365.552 381.216,364.939 379.676,364.939L301.692,364.939C300.152,364.939 298.675,365.552 297.585,366.642C296.496,367.733 295.884,369.212 295.884,370.754Z" style="fill:white;fill-rule:nonzero;"/>
        <path d="M295.942,352.596L295.942,359.148C295.944,360.69 296.556,362.168 297.645,363.258C298.734,364.348 300.21,364.962 301.75,364.964L379.733,364.964C381.273,364.962 382.749,364.348 383.838,363.258C384.926,362.168 385.539,360.69 385.541,359.148L385.541,352.596C385.541,351.053 384.929,349.574 383.84,348.484C382.751,347.393 381.273,346.78 379.733,346.78L301.75,346.78C300.209,346.78 298.732,347.393 297.643,348.484C296.553,349.574 295.942,351.053 295.942,352.596Z" style="fill:white;fill-rule:nonzero;"/>
        <path d="M295.884,388.93L295.884,395.482C295.888,396.571 296.196,397.638 296.775,398.56C297.353,399.482 298.178,400.224 299.156,400.7C299.955,401.097 300.834,401.301 301.725,401.298L379.676,401.298C380.794,401.299 381.888,400.976 382.827,400.368C383.766,399.761 384.51,398.895 384.969,397.874C385.31,397.123 385.486,396.307 385.484,395.482L385.484,388.93C385.485,388.166 385.336,387.409 385.044,386.703C384.753,385.997 384.325,385.355 383.785,384.815C383.246,384.275 382.605,383.847 381.9,383.555C381.195,383.263 380.439,383.113 379.676,383.114L301.692,383.114C300.929,383.113 300.174,383.263 299.468,383.555C298.763,383.847 298.123,384.275 297.583,384.815C297.043,385.355 296.616,385.997 296.324,386.703C296.033,387.409 295.883,388.166 295.884,388.93Z" style="fill:white;fill-rule:nonzero;"/>
        <g opacity="0.34">
            <rect x="344.656" y="346.78" width="31.061" height="54.501" style="fill:rgb(150,184,255);fill-opacity:0.34;fill-rule:nonzero;"/>
        </g>
        <rect x="304.604" y="346.78" width="27.487" height="54.501" style="fill:rgb(248,179,38);fill-rule:nonzero;"/>
        <path d="M379.676,384.097L301.692,384.097C299.892,384.095 298.167,383.378 296.894,382.104C295.621,380.829 294.905,379.101 294.903,377.299L294.903,370.747C294.905,368.944 295.621,367.216 296.894,365.942C298.167,364.667 299.892,363.95 301.692,363.948L379.676,363.948C381.476,363.95 383.202,364.667 384.474,365.942C385.747,367.216 386.463,368.944 386.466,370.747L386.466,377.299C386.463,379.101 385.747,380.829 384.474,382.104C383.202,383.378 381.476,384.095 379.676,384.097ZM301.692,365.93C300.967,365.929 300.252,366.092 299.598,366.407C298.945,366.721 298.372,367.18 297.921,367.749C297.232,368.601 296.859,369.666 296.866,370.763L296.866,377.316C296.868,378.597 297.377,379.824 298.282,380.73C299.187,381.636 300.413,382.146 301.692,382.148L379.676,382.148C380.955,382.146 382.182,381.636 383.086,380.73C383.991,379.824 384.5,378.597 384.502,377.316L384.502,370.763C384.504,370.128 384.381,369.498 384.139,368.911C383.897,368.324 383.542,367.79 383.093,367.341C382.645,366.892 382.112,366.536 381.525,366.294C380.939,366.052 380.31,365.928 379.676,365.93L301.692,365.93Z" style="fill:rgb(5,14,18);fill-rule:nonzero;"/>
        <path d="M379.733,365.93L301.75,365.93C299.949,365.928 298.224,365.211 296.951,363.937C295.678,362.662 294.962,360.935 294.96,359.132L294.96,352.58C294.962,350.777 295.678,349.049 296.951,347.775C298.224,346.5 299.949,345.783 301.75,345.781L379.733,345.781C381.532,345.783 383.257,346.501 384.529,347.775C385.8,349.05 386.515,350.778 386.515,352.58L386.515,359.132C386.512,360.933 385.798,362.66 384.526,363.934C383.255,365.208 381.532,365.926 379.733,365.93ZM301.75,347.763C300.469,347.763 299.24,348.272 298.334,349.178C297.427,350.084 296.917,351.314 296.915,352.596L296.915,359.149C296.915,359.784 297.04,360.413 297.283,361C297.526,361.587 297.882,362.12 298.331,362.569C298.78,363.017 299.314,363.373 299.9,363.616C300.487,363.858 301.115,363.982 301.75,363.981L379.733,363.981C381.013,363.981 382.241,363.472 383.146,362.566C384.051,361.659 384.559,360.43 384.559,359.149L384.559,352.596C384.559,351.314 384.051,350.085 383.146,349.179C382.241,348.273 381.013,347.763 379.733,347.763L301.75,347.763Z" style="fill:rgb(5,14,18);fill-rule:nonzero;"/>
        <path d="M379.676,402.264L301.692,402.264C300.648,402.267 299.617,402.026 298.682,401.56C297.548,400.997 296.594,400.128 295.927,399.051C295.259,397.975 294.904,396.733 294.903,395.466L294.903,388.914C294.903,387.111 295.618,385.381 296.891,384.106C298.165,382.831 299.892,382.115 301.692,382.115L379.676,382.115C381.476,382.117 383.202,382.834 384.475,384.109C385.747,385.383 386.463,387.111 386.466,388.914L386.466,395.466C386.468,396.433 386.261,397.388 385.86,398.267C385.323,399.459 384.454,400.47 383.357,401.179C382.26,401.888 380.982,402.265 379.676,402.264ZM301.692,384.097C301.058,384.096 300.43,384.221 299.844,384.463C299.258,384.706 298.725,385.061 298.277,385.51C297.829,385.959 297.473,386.493 297.231,387.079C296.989,387.666 296.865,388.295 296.866,388.93L296.866,395.482C296.864,396.385 297.116,397.269 297.591,398.035C298.067,398.801 298.748,399.418 299.557,399.815C300.22,400.148 300.951,400.319 301.692,400.315L379.676,400.315C380.434,400.318 381.183,400.142 381.86,399.799C382.841,399.298 383.623,398.478 384.077,397.473C384.364,396.849 384.512,396.17 384.51,395.482L384.51,388.93C384.506,387.648 383.995,386.42 383.089,385.515C382.183,384.609 380.956,384.1 379.676,384.097L301.692,384.097Z" style="fill:rgb(5,14,18);fill-rule:nonzero;"/>
        <path d="M53.221,103.605C53.221,103.605 71.84,106.792 81.215,117.53C81.269,118.959 81.22,120.391 81.067,121.813C80.775,124.587 79.417,127.137 77.279,128.924C75.141,130.712 72.392,131.595 69.615,131.388C62.719,130.897 52.894,129.66 48.46,126.589L53.221,103.605Z" style="fill:white;fill-rule:nonzero;"/>
        <path d="M70.458,132.404L69.59,132.404C62.228,131.872 52.461,130.578 47.904,127.416C47.743,127.306 47.618,127.151 47.545,126.97C47.472,126.79 47.455,126.591 47.495,126.4L52.264,103.401C52.309,103.142 52.453,102.911 52.665,102.758C52.878,102.605 53.143,102.541 53.402,102.582C54.219,102.721 72.478,105.956 81.976,116.85C82.121,117.017 82.208,117.227 82.221,117.448C82.276,118.94 82.227,120.435 82.074,121.92C81.787,124.801 80.438,127.472 78.29,129.41C76.142,131.349 73.349,132.416 70.458,132.404ZM49.581,126.105C53.074,128.186 60.175,129.701 69.729,130.389C72.239,130.589 74.726,129.797 76.66,128.184C78.594,126.57 79.821,124.263 80.078,121.756C80.208,120.486 80.26,119.208 80.233,117.931C72.339,109.118 57.811,105.563 53.99,104.76L49.581,126.105Z" style="fill:rgb(5,14,18);fill-rule:nonzero;"/>
        <path d="M69.901,227.917C69.901,324.887 64.486,403.518 57.811,403.518C51.136,403.518 45.72,324.887 45.72,227.917C45.72,184.506 46.8,144.732 48.6,114.065C50.825,76.281 54.121,52.315 57.811,52.315C61.5,52.315 64.797,76.281 67.022,114.065C68.822,144.732 69.901,184.481 69.901,227.917Z" style="fill:rgb(0,4,76);fill-rule:nonzero;"/>
        <path d="M67.308,114.065L48.313,114.065C50.604,75.102 54.039,50.391 57.811,50.391C61.582,50.391 65.018,75.069 67.308,114.065Z" style="fill:rgb(248,179,38);fill-rule:nonzero;"/>
        <path d="M57.549,67.894C53.352,67.894 50.187,62.824 48.984,60.915C44.894,54.322 45.058,47.139 45.557,41.88C47.111,25.269 53.246,10.067 57.827,0.533C58.983,8.404 60.694,16.183 62.948,23.811C67.226,38.243 70.891,43.469 69.222,52.151C67.807,59.408 62.956,67.877 57.549,67.894Z" style="fill:white;fill-rule:nonzero;"/>
        <path d="M57.533,68.877C52.804,68.877 49.426,63.471 48.15,61.432C43.978,54.756 44.06,47.425 44.583,41.774C45.802,28.669 49.958,14.671 56.919,0.099C57.008,-0.089 57.156,-0.244 57.341,-0.341C57.525,-0.439 57.736,-0.474 57.942,-0.441C58.147,-0.408 58.336,-0.311 58.483,-0.164C58.629,-0.017 58.726,0.173 58.76,0.378C59.906,8.202 61.606,15.934 63.848,23.517C65.058,27.612 66.204,30.888 67.226,33.829C69.82,41.307 71.39,45.82 70.147,52.323C68.625,60.26 63.373,68.836 57.549,68.861L57.533,68.877ZM57.369,3.859C51.324,17.177 47.692,29.979 46.563,41.97C46.039,47.63 46.015,54.256 49.835,60.4C50.947,62.185 53.925,66.952 57.557,66.952C62.171,66.952 66.891,59.056 68.241,52.004C69.386,46.017 67.881,41.692 65.394,34.525C64.371,31.584 63.21,28.243 61.991,24.123C60.038,17.469 58.494,10.702 57.369,3.859Z" style="fill:rgb(5,14,18);fill-rule:nonzero;"/>
        <path d="M54.702,68.107C54.495,68.108 54.292,68.043 54.125,67.92C53.957,67.798 53.832,67.625 53.77,67.427C50.475,55.583 49.383,43.234 50.547,30.995C50.591,30.753 50.725,30.537 50.921,30.389C51.117,30.24 51.362,30.171 51.606,30.195C51.851,30.219 52.078,30.333 52.242,30.516C52.406,30.699 52.496,30.937 52.493,31.183C51.353,43.157 52.415,55.239 55.627,66.829C55.666,66.952 55.681,67.08 55.671,67.208C55.66,67.336 55.625,67.461 55.566,67.575C55.508,67.689 55.427,67.79 55.33,67.873C55.232,67.956 55.119,68.019 54.997,68.058C54.902,68.09 54.802,68.107 54.702,68.107Z" style="fill:rgb(5,14,18);fill-rule:nonzero;"/>
        <path d="M57.369,69.188C57.175,69.186 56.985,69.129 56.821,69.024C56.616,68.879 56.474,68.661 56.424,68.414C56.374,68.168 56.419,67.912 56.551,67.698C64.846,55.264 56.551,37.515 56.485,37.334C56.414,37.106 56.427,36.86 56.524,36.642C56.62,36.423 56.793,36.248 57.009,36.147C57.226,36.047 57.471,36.029 57.7,36.097C57.929,36.164 58.125,36.313 58.252,36.515C58.612,37.285 67.095,55.444 58.179,68.811C58.083,68.934 57.96,69.032 57.819,69.097C57.678,69.163 57.524,69.194 57.369,69.188Z" style="fill:rgb(5,14,18);fill-rule:nonzero;"/>
        <path d="M66.31,104.433L48.616,104.433C48.372,104.41 48.146,104.298 47.98,104.116C47.815,103.935 47.724,103.699 47.724,103.454C47.724,103.209 47.815,102.972 47.98,102.791C48.146,102.61 48.372,102.497 48.616,102.475L66.31,102.475C66.554,102.497 66.781,102.61 66.946,102.791C67.111,102.972 67.202,103.209 67.202,103.454C67.202,103.699 67.111,103.935 66.946,104.116C66.781,104.298 66.554,104.41 66.31,104.433Z" style="fill:rgb(5,14,18);fill-rule:nonzero;"/>
        <path d="M73.861,109.397C68.437,105.842 67.455,102.762 65.378,103.123C63.742,103.417 63.193,106.399 64.887,108.79C66.122,110.521 67.105,112.418 67.807,114.426C69.083,118.169 71.603,123.231 75.808,122.952L80.102,117.981C79.236,114.406 76.992,111.32 73.861,109.397Z" style="fill:white;fill-rule:nonzero;"/>
        <path d="M47.79,102.524C48.453,102.193 49.218,102.132 49.925,102.352C52.003,103.032 58.187,105.162 58.531,106.39C58.94,107.865 57.606,109.347 55.185,109.224C52.763,109.101 48.641,107.545 48.641,107.545C48.641,107.545 56.412,110.166 57.369,112.46C58.326,114.753 55.504,116.637 53.491,116.244C54,116.571 54.409,117.032 54.672,117.577C54.934,118.122 55.041,118.729 54.98,119.332C54.843,120.116 54.432,120.826 53.821,121.336C53.21,121.846 52.438,122.123 51.643,122.116C52.11,122.649 52.353,123.342 52.322,124.049C52.286,124.411 52.165,124.759 51.97,125.065C51.769,125.37 51.506,125.63 51.2,125.829C50.893,126.027 50.548,126.16 50.188,126.219C49.827,126.277 49.459,126.26 49.105,126.169C48.751,126.077 48.42,125.913 48.133,125.688C45.254,123.509 42.039,120.97 42.767,119.389C43.005,118.931 43.32,118.518 43.7,118.169C44.057,117.836 44.462,117.56 44.902,117.349C44.41,116.903 44.076,116.308 43.952,115.655C43.828,115.001 43.92,114.325 44.215,113.729C44.435,113.374 44.727,113.07 45.072,112.836C45.418,112.601 45.808,112.442 46.219,112.369C45.596,111.911 45.167,111.236 45.017,110.477C44.961,109.729 45.152,108.983 45.56,108.353C45.967,107.723 46.569,107.243 47.274,106.988C46.953,106.706 46.7,106.354 46.534,105.96C46.368,105.566 46.294,105.139 46.317,104.711C46.361,104.253 46.519,103.812 46.776,103.43C47.033,103.048 47.382,102.737 47.79,102.524Z" style="fill:white;fill-rule:nonzero;"/>
        <path d="M49.786,127.154C48.982,127.153 48.2,126.889 47.561,126.4C43.757,123.517 40.926,121.142 41.916,119.029C42.204,118.463 42.592,117.955 43.062,117.53C43.208,117.383 43.367,117.249 43.536,117.128C43.18,116.561 42.98,115.909 42.955,115.239C42.931,114.569 43.083,113.904 43.397,113.312C43.697,112.792 44.121,112.356 44.632,112.042C44.357,111.622 44.175,111.147 44.1,110.65C44.009,109.9 44.127,109.14 44.44,108.454C44.754,107.767 45.25,107.181 45.876,106.759C45.5,106.128 45.331,105.394 45.393,104.662C45.452,104.05 45.664,103.462 46.01,102.954C46.356,102.446 46.825,102.033 47.373,101.754C48.25,101.314 49.264,101.229 50.203,101.517C58.915,104.384 59.259,105.612 59.414,106.186C59.535,106.628 59.55,107.092 59.456,107.541C59.362,107.99 59.163,108.41 58.874,108.766C58.218,109.535 57.293,110.024 56.289,110.134C57.084,110.607 57.738,111.282 58.187,112.091C58.42,112.65 58.494,113.263 58.4,113.862C58.306,114.461 58.048,115.021 57.655,115.482C57.055,116.192 56.262,116.712 55.373,116.981C55.798,117.725 55.97,118.588 55.864,119.438C55.751,120.203 55.427,120.921 54.928,121.512C54.429,122.102 53.776,122.541 53.042,122.78C53.191,123.211 53.247,123.669 53.205,124.123C53.158,124.626 52.996,125.111 52.731,125.54C52.482,125.945 52.151,126.293 51.759,126.561C51.367,126.829 50.923,127.012 50.457,127.097C50.235,127.135 50.011,127.154 49.786,127.154ZM47.741,107.758L47.618,107.824C47.103,108.004 46.659,108.344 46.351,108.795C46.044,109.246 45.888,109.784 45.908,110.33C46.015,110.849 46.306,111.311 46.726,111.632C46.87,111.74 46.978,111.887 47.039,112.055C47.1,112.224 47.11,112.407 47.068,112.581C47.026,112.755 46.934,112.913 46.804,113.036C46.673,113.158 46.51,113.24 46.334,113.271C46.057,113.32 45.793,113.426 45.558,113.581C45.324,113.736 45.123,113.937 44.968,114.172C44.772,114.592 44.717,115.065 44.811,115.52C44.905,115.975 45.144,116.387 45.491,116.694C45.6,116.798 45.681,116.927 45.728,117.07C45.775,117.213 45.786,117.365 45.761,117.513C45.734,117.66 45.672,117.798 45.581,117.917C45.49,118.035 45.372,118.13 45.237,118.193C44.885,118.359 44.559,118.577 44.272,118.84C43.985,119.111 43.74,119.423 43.544,119.766C43.094,120.757 47.266,123.919 48.632,124.959C48.839,125.112 49.075,125.222 49.325,125.281C49.575,125.34 49.835,125.348 50.088,125.303C50.303,125.261 50.507,125.176 50.688,125.053C50.869,124.931 51.024,124.774 51.144,124.59C51.263,124.399 51.336,124.183 51.356,123.96C51.369,123.497 51.202,123.048 50.89,122.706C50.779,122.574 50.707,122.412 50.684,122.24C50.661,122.068 50.686,121.893 50.758,121.736C50.83,121.578 50.945,121.444 51.09,121.349C51.235,121.254 51.404,121.202 51.577,121.199C52.155,121.21 52.718,121.016 53.167,120.652C53.615,120.288 53.922,119.777 54.031,119.209C54.07,118.776 53.988,118.341 53.794,117.952C53.601,117.563 53.303,117.236 52.935,117.006C52.773,116.883 52.657,116.709 52.604,116.512C52.552,116.316 52.566,116.107 52.645,115.92C52.723,115.732 52.862,115.576 53.039,115.476C53.216,115.376 53.421,115.338 53.622,115.367C54.105,115.43 54.597,115.371 55.051,115.195C55.505,115.019 55.908,114.732 56.224,114.36C56.41,114.158 56.533,113.907 56.578,113.636C56.623,113.365 56.588,113.088 56.477,112.836C55.995,111.673 52.314,109.921 49.344,108.823C48.739,108.618 48.33,108.463 48.281,108.446C48.141,108.386 48.018,108.291 47.923,108.171C47.829,108.051 47.766,107.909 47.741,107.758ZM49.958,107.046C51.664,107.664 53.433,108.09 55.234,108.315C55.634,108.368 56.04,108.329 56.423,108.202C56.806,108.074 57.154,107.861 57.443,107.578C57.545,107.457 57.618,107.315 57.656,107.162C57.694,107.008 57.697,106.848 57.663,106.693C57.295,106.227 54.899,104.949 49.639,103.221C49.163,103.081 48.652,103.124 48.207,103.343C47.937,103.482 47.705,103.685 47.532,103.936C47.359,104.186 47.251,104.475 47.217,104.777C47.206,105.059 47.256,105.34 47.365,105.6C47.474,105.861 47.639,106.094 47.847,106.284C47.994,106.41 48.097,106.579 48.142,106.767C48.257,106.696 48.386,106.651 48.52,106.636C48.654,106.62 48.79,106.634 48.919,106.677C49.14,106.751 49.499,106.874 49.958,107.013L49.958,107.046Z" style="fill:rgb(5,14,18);fill-rule:nonzero;"/>
        <path d="M86.18,145.304L71.456,131.438C71.278,131.27 71.173,131.039 71.166,130.795C71.158,130.551 71.248,130.313 71.415,130.135C71.582,129.957 71.813,129.853 72.057,129.845C72.3,129.837 72.537,129.927 72.715,130.094L85.804,142.438L94.549,128.579L79.243,118.529L79.178,118.128C78.335,114.817 76.245,111.961 73.345,110.158C71.393,108.872 69.588,107.375 67.963,105.694C66.711,104.465 66.13,103.925 65.508,104.056C65.189,104.113 65.009,104.457 64.928,104.654C64.749,105.27 64.718,105.919 64.836,106.549C64.954,107.179 65.218,107.773 65.607,108.282C66.252,109.24 66.782,110.271 67.185,111.354C67.515,112.253 67.958,113.106 68.502,113.893C70.859,116.935 73.5,119.747 76.388,122.289C76.483,122.367 76.561,122.463 76.617,122.572C76.674,122.681 76.708,122.801 76.718,122.923C76.727,123.046 76.712,123.169 76.673,123.285C76.635,123.402 76.573,123.509 76.492,123.602C76.411,123.694 76.312,123.769 76.201,123.822C76.091,123.875 75.971,123.906 75.848,123.912C75.725,123.917 75.603,123.899 75.488,123.856C75.373,123.814 75.267,123.749 75.178,123.665C72.2,121.045 69.479,118.146 67.055,115.007C66.404,114.1 65.881,113.108 65.5,112.058C65.142,111.102 64.675,110.189 64.11,109.339C63.536,108.582 63.156,107.696 63.002,106.758C62.848,105.82 62.925,104.859 63.226,103.958C63.381,103.529 63.643,103.147 63.987,102.847C64.33,102.548 64.744,102.341 65.189,102.246C66.768,101.967 67.807,102.999 69.239,104.416C70.78,106.011 72.492,107.431 74.343,108.651C77.546,110.661 79.881,113.8 80.888,117.448L97.036,128.096L86.18,145.304Z" style="fill:rgb(5,14,18);fill-rule:nonzero;"/>
        <path d="M192.263,398.775C191.796,398.775 191.33,398.726 190.873,398.628C189.896,398.388 188.977,397.952 188.173,397.346C187.369,396.741 186.696,395.979 186.194,395.106C185.592,394.081 185.199,392.946 185.038,391.768C184.876,390.59 184.949,389.392 185.253,388.242L181.85,352.146L198.939,360.926L199.331,394.418L199.2,394.639C198.483,395.855 197.472,396.872 196.259,397.594C195.047,398.317 193.673,398.723 192.263,398.775ZM183.895,355.192L187.02,388.43L187.02,388.586C186.75,389.527 186.673,390.514 186.796,391.485C186.918,392.457 187.236,393.393 187.731,394.238C188.112,394.905 188.622,395.488 189.232,395.954C189.842,396.42 190.539,396.758 191.282,396.949C193.556,397.448 196.125,396.236 197.622,393.992L197.245,362.048L183.895,355.192Z" style="fill:rgb(5,14,18);fill-rule:nonzero;"/>
        <path d="M192.263,398.775C191.796,398.775 191.33,398.726 190.873,398.628C189.896,398.388 188.977,397.952 188.173,397.346C187.369,396.741 186.696,395.979 186.194,395.106C185.592,394.081 185.199,392.946 185.038,391.768C184.876,390.59 184.949,389.392 185.253,388.242L181.85,352.146L198.939,360.926L199.331,394.418L199.2,394.639C198.483,395.855 197.472,396.872 196.259,397.594C195.047,398.317 193.673,398.723 192.263,398.775ZM183.895,355.192L187.02,388.43L187.02,388.586C186.75,389.527 186.673,390.514 186.796,391.485C186.918,392.457 187.236,393.393 187.731,394.238C188.112,394.905 188.622,395.488 189.232,395.954C189.842,396.42 190.539,396.758 191.282,396.949C193.556,397.448 196.125,396.236 197.622,393.992L197.245,362.048L183.895,355.192Z" style="fill:rgb(5,14,18);fill-rule:nonzero;"/>
        <path d="M198.407,385.981C199.977,385.481 201.605,387.619 203.863,389.388C206.082,391.066 208.643,392.233 211.364,392.804L225.958,395.81C226.868,396.135 227.658,396.729 228.224,397.514C228.77,398.308 229.056,399.252 229.042,400.217L229.042,402.362L179.96,402.362L184.868,387.914C185.742,387.726 186.649,387.765 187.502,388.029C190.308,388.913 190.603,391.928 193.638,392.804C193.958,392.951 194.307,393.027 194.66,393.027C195.013,393.027 195.362,392.951 195.683,392.804C196.812,391.985 195.593,389.708 197.041,387.341C197.313,386.734 197.799,386.25 198.407,385.981Z" style="fill:rgb(5,14,18);fill-rule:nonzero;"/>
        <path d="M228.944,400.995L180.132,400.995C179.68,400.995 179.314,401.362 179.314,401.814L179.314,402.904C179.314,403.356 179.68,403.723 180.132,403.723L228.944,403.723C229.396,403.723 229.762,403.356 229.762,402.904L229.762,401.814C229.762,401.362 229.396,400.995 228.944,400.995Z" style="fill:rgb(5,14,18);fill-rule:nonzero;"/>
        <path d="M228.748,401.339L180.484,401.339C180.392,401.339 180.305,401.303 180.241,401.238C180.176,401.174 180.14,401.086 180.14,400.995C180.14,400.904 180.176,400.816 180.241,400.752C180.305,400.687 180.392,400.651 180.484,400.651L228.748,400.651C228.839,400.651 228.926,400.687 228.991,400.752C229.055,400.816 229.091,400.904 229.091,400.995C229.091,401.086 229.055,401.174 228.991,401.238C228.926,401.303 228.839,401.339 228.748,401.339Z" style="fill:white;fill-rule:nonzero;"/>
        <path d="M135.639,362.4L133.446,395.049C134.984,397.874 137.937,399.455 140.637,399.013C144.212,398.431 147.067,394.344 146.069,389.847C147.803,378.38 149.535,366.913 151.263,355.446L135.639,362.4Z" style="fill:white;fill-rule:nonzero;"/>
        <path d="M135.639,362.4L133.446,395.049C134.984,397.874 137.937,399.455 140.637,399.013C144.212,398.431 147.067,394.344 146.069,389.847C147.803,378.38 149.535,366.913 151.263,355.446L135.639,362.4Z" style="fill:white;fill-rule:nonzero;"/>
        <path d="M139.737,399.963C138.268,399.904 136.84,399.457 135.598,398.667C134.357,397.878 133.346,396.773 132.669,395.466L132.547,395.237L134.804,361.818L152.351,353.972L146.952,389.823C147.193,390.987 147.2,392.188 146.972,393.355C146.745,394.522 146.287,395.632 145.627,396.621C145.081,397.468 144.369,398.196 143.534,398.759C142.698,399.322 141.757,399.709 140.768,399.897C140.426,399.943 140.082,399.965 139.737,399.963ZM134.322,394.843C135.696,397.17 138.199,398.521 140.482,398.12C141.237,397.974 141.956,397.677 142.593,397.244C143.23,396.812 143.772,396.254 144.187,395.605C144.727,394.789 145.096,393.872 145.272,392.909C145.448,391.946 145.426,390.957 145.21,390.003L145.21,389.847L150.184,356.838L136.506,362.957L134.322,394.843Z" style="fill:rgb(5,14,18);fill-rule:nonzero;"/>
        <path d="M139.737,399.963C138.268,399.904 136.84,399.457 135.598,398.667C134.357,397.878 133.346,396.773 132.669,395.466L132.547,395.237L134.804,361.818L152.351,353.972L146.952,389.823C147.193,390.987 147.2,392.188 146.972,393.355C146.745,394.522 146.287,395.632 145.627,396.621C145.081,397.468 144.369,398.196 143.534,398.759C142.698,399.322 141.757,399.709 140.768,399.897C140.426,399.943 140.082,399.965 139.737,399.963ZM134.322,394.843C135.696,397.17 138.199,398.521 140.482,398.12C141.237,397.974 141.956,397.677 142.593,397.244C143.23,396.812 143.772,396.254 144.187,395.605C144.727,394.789 145.096,393.872 145.272,392.909C145.448,391.946 145.426,390.957 145.21,390.003L145.21,389.847L150.184,356.838L136.506,362.957L134.322,394.843Z" style="fill:rgb(5,14,18);fill-rule:nonzero;"/>
        <path d="M130.003,403.722L161.399,403.722C161.765,403.722 162.061,403.425 162.061,403.059L162.061,401.658C162.061,401.292 161.765,400.995 161.399,400.995L130.003,400.995C129.637,400.995 129.34,401.292 129.34,401.658L129.34,403.059C129.34,403.425 129.637,403.722 130.003,403.722Z" style="fill:rgb(5,14,18);fill-rule:nonzero;"/>
        <path d="M134.796,402.363L162.078,402.363L162.078,398.947C162.102,398.721 162.102,398.493 162.078,398.267C161.685,394.123 154.069,391.87 152.531,391.436L151.852,390.756C150.404,389.274 149.472,388.709 148.294,386.866C147.822,386.111 147.136,385.514 146.322,385.154C145.696,384.877 145.031,384.695 144.351,384.613C142.287,384.425 140.231,385.054 138.625,386.366C137.962,386.884 137.455,387.576 137.16,388.365L135.524,392.804C135.468,392.948 135.368,393.069 135.239,393.152C135.109,393.235 134.957,393.275 134.803,393.266C134.65,393.257 134.503,393.2 134.384,393.102C134.265,393.004 134.181,392.871 134.142,392.722C133.695,390.931 133.247,389.137 132.8,387.341C132.318,389.798 131.868,392.255 131.401,394.713C130.706,398.439 130.027,402.191 130.068,402.33L134.796,402.363Z" style="fill:rgb(5,14,18);fill-rule:nonzero;"/>
        <path d="M141.938,394.115C141.883,394.113 141.829,394.099 141.781,394.074C141.733,394.048 141.691,394.012 141.659,393.967C141.608,393.893 141.588,393.802 141.603,393.713C141.619,393.624 141.668,393.545 141.741,393.492C144.04,391.854 147.615,390.052 151.558,390.805C152.029,390.897 152.494,391.02 152.948,391.174C152.996,391.185 153.04,391.205 153.079,391.234C153.118,391.263 153.15,391.299 153.173,391.342C153.197,391.384 153.212,391.43 153.216,391.479C153.22,391.527 153.215,391.575 153.199,391.621C153.183,391.667 153.158,391.709 153.125,391.744C153.092,391.78 153.052,391.808 153.008,391.827C152.963,391.846 152.915,391.855 152.867,391.854C152.819,391.853 152.771,391.842 152.728,391.821C152.303,391.674 151.868,391.559 151.427,391.477C147.705,390.773 144.31,392.485 142.118,394.049C142.065,394.087 142.003,394.11 141.938,394.115Z" style="fill:white;fill-rule:nonzero;"/>
        <path d="M160.802,401.667L130.281,401.667C130.238,401.667 130.195,401.658 130.155,401.642C130.116,401.625 130.08,401.601 130.049,401.571C130.019,401.54 129.995,401.504 129.978,401.464C129.962,401.425 129.953,401.382 129.953,401.339C129.953,401.296 129.962,401.253 129.978,401.213C129.995,401.174 130.019,401.138 130.049,401.107C130.08,401.077 130.116,401.053 130.155,401.036C130.195,401.02 130.238,401.011 130.281,401.011L160.802,401.011C160.845,401.011 160.887,401.02 160.927,401.036C160.967,401.053 161.003,401.077 161.033,401.107C161.063,401.138 161.087,401.174 161.104,401.213C161.12,401.253 161.129,401.296 161.129,401.339C161.129,401.382 161.12,401.425 161.104,401.464C161.087,401.504 161.063,401.54 161.033,401.571C161.003,401.601 160.967,401.625 160.927,401.642C160.887,401.658 160.845,401.667 160.802,401.667Z" style="fill:white;fill-rule:nonzero;"/>
        <path d="M144.572,174.668C142.478,219.914 141.856,246.509 141.905,263.21C142.046,273.065 141.499,282.918 140.269,292.697C138.551,306.097 136.416,312.232 134.763,321.496C132.874,332.029 131.491,347.411 134.232,367.364L151.1,366.987C159.28,318.744 167.43,270.5 175.551,222.257C177.685,239.083 178.827,256.021 178.97,272.982C179.117,292.976 177.759,301.649 178.455,319.669C179.058,335.321 180.941,350.897 184.083,366.242L200.951,365.873C202.587,329.523 204.092,293.167 205.466,256.805C206.492,229.759 207.435,202.703 208.297,175.635L144.572,174.668Z" style="fill:rgb(0,4,76);fill-rule:nonzero;"/>
        <path d="M143.263,188.101L142.445,202.026C163.926,206.751 186.043,207.858 207.888,205.302L208.6,186.93L143.263,188.101Z" style="fill:rgb(248,179,38);fill-rule:nonzero;"/>
        <path d="M238.155,108.651C236.246,116.569 234.338,124.487 232.429,132.404C232.723,132.863 235.472,136.991 240.609,137.319C243.285,137.457 245.914,136.58 247.972,134.861L249.542,111.985L249.73,111.747C249.812,105.195 249.899,98.642 249.992,92.09L250.81,68.467C250.839,67.985 250.685,67.509 250.377,67.137C250.07,66.764 249.632,66.522 249.154,66.46C248.675,66.397 248.19,66.519 247.798,66.801C247.406,67.082 247.134,67.502 247.039,67.976L242.016,90.091L238.155,108.651Z" style="fill:white;fill-rule:nonzero;"/>
        <path d="M241.247,138.318L240.544,138.318C238.745,138.157 237.007,137.588 235.459,136.656C233.912,135.724 232.596,134.452 231.611,132.937L231.39,132.584L237.206,108.438L241.084,89.862L246.107,67.747C246.197,67.358 246.366,66.993 246.603,66.673C246.841,66.352 247.142,66.085 247.487,65.887C247.833,65.688 248.215,65.563 248.611,65.52C249.007,65.476 249.407,65.515 249.788,65.633C250.393,65.819 250.921,66.2 251.288,66.717C251.655,67.234 251.841,67.858 251.816,68.492L250.998,92.122C250.906,98.577 250.818,105.047 250.737,111.534L250.737,112.124L250.532,112.386L248.953,135.377L248.634,135.648C246.552,137.362 243.943,138.305 241.247,138.318ZM233.484,132.208C234.323,133.363 235.399,134.325 236.639,135.032C237.878,135.738 239.254,136.171 240.675,136.303C242.96,136.425 245.212,135.721 247.023,134.321L248.593,111.567L248.757,111.362C248.839,104.908 248.923,98.454 249.011,91.999L249.829,68.353C249.837,68.149 249.777,67.948 249.659,67.781C249.54,67.615 249.37,67.494 249.174,67.435C249.052,67.397 248.924,67.384 248.797,67.397C248.67,67.411 248.547,67.45 248.435,67.513C248.324,67.576 248.227,67.662 248.15,67.764C248.073,67.866 248.018,67.983 247.988,68.107L242.965,90.222L239.08,108.823L233.484,132.208Z" style="fill:rgb(5,14,18);fill-rule:nonzero;"/>
        <path d="M244.078,104.302C243.765,102.855 243.98,101.344 244.683,100.042C245.543,98.452 246.239,96.778 246.761,95.046C248.045,90.738 247.955,86.937 249.894,86.38C250.209,86.268 250.553,86.268 250.868,86.38C252.43,87.068 251.317,90.828 251.587,96.119C251.882,102.139 253.641,103.646 252.283,106.816C251.579,108.454 249.992,110.682 248.299,110.6C246.606,110.518 244.92,108.143 244.078,104.302Z" style="fill:white;fill-rule:nonzero;"/>
        <path d="M248.356,111.608L248.274,111.608C248.015,111.6 247.769,111.489 247.59,111.301C247.411,111.112 247.313,110.861 247.317,110.601C247.319,110.472 247.347,110.344 247.399,110.226C247.451,110.108 247.526,110.002 247.62,109.913C247.714,109.824 247.824,109.756 247.945,109.711C248.066,109.666 248.195,109.645 248.323,109.651C248.858,109.575 249.372,109.391 249.834,109.109C250.295,108.827 250.694,108.454 251.007,108.012C251.524,107.288 251.852,106.445 251.962,105.561C252.072,104.678 251.96,103.78 251.636,102.951C250.745,100.084 250.818,96.316 250.9,92.991C250.949,90.853 251.015,87.929 250.573,87.429C250.475,87.323 250.336,87.192 250.246,87.224C249.796,87.372 248.781,88.764 248.479,92.139C248.06,95.486 246.903,98.697 245.092,101.542C245.021,101.649 244.93,101.742 244.823,101.814C244.717,101.886 244.597,101.937 244.471,101.963C244.345,101.988 244.215,101.989 244.088,101.965C243.962,101.94 243.842,101.891 243.734,101.82C243.627,101.749 243.534,101.658 243.462,101.551C243.39,101.444 243.34,101.324 243.314,101.198C243.288,101.072 243.287,100.942 243.312,100.815C243.336,100.689 243.385,100.568 243.456,100.461C245.074,97.879 246.121,94.98 246.524,91.959C246.843,88.379 248.004,85.922 249.616,85.406C250.047,85.273 250.507,85.275 250.937,85.411C251.367,85.547 251.745,85.811 252.021,86.168C252.937,87.183 252.937,89.346 252.839,93.081C252.765,96.251 252.692,99.846 253.485,102.402C253.896,103.531 254.026,104.744 253.862,105.934C253.698,107.125 253.246,108.257 252.544,109.233C252.058,109.907 251.432,110.468 250.709,110.878C249.986,111.287 249.184,111.537 248.356,111.608Z" style="fill:rgb(5,14,18);fill-rule:nonzero;"/>
        <path d="M245.051,87.232L244.904,87.232C244.649,87.192 244.42,87.052 244.266,86.844C244.113,86.635 244.048,86.375 244.086,86.118C244.732,81.826 246.426,70.359 246.466,68.811C246.467,68.425 246.546,68.043 246.699,67.688C246.851,67.333 247.075,67.013 247.355,66.747C247.635,66.481 247.966,66.275 248.328,66.142C248.69,66.008 249.075,65.949 249.461,65.969C249.589,65.969 249.717,65.995 249.836,66.045C249.954,66.095 250.062,66.169 250.152,66.261C250.242,66.353 250.312,66.463 250.36,66.583C250.407,66.703 250.429,66.831 250.426,66.96C250.426,67.089 250.4,67.216 250.35,67.335C250.3,67.453 250.226,67.56 250.134,67.65C250.042,67.739 249.932,67.809 249.812,67.855C249.692,67.901 249.564,67.923 249.436,67.919C249.306,67.901 249.175,67.913 249.05,67.953C248.926,67.993 248.812,68.06 248.716,68.149C248.621,68.238 248.547,68.348 248.498,68.469C248.45,68.591 248.43,68.722 248.438,68.852C248.389,70.834 246.139,85.766 246.041,86.405C246.005,86.64 245.885,86.854 245.703,87.006C245.52,87.159 245.289,87.239 245.051,87.232Z" style="fill:rgb(5,14,18);fill-rule:nonzero;"/>
        <path d="M196.615,84.742C201.148,85.916 205.309,88.225 208.706,91.45C213.99,96.611 215.177,102.442 218.522,116.023C219.823,121.314 222.032,130.094 225.067,141.414C225.484,137.319 226.024,132.33 226.703,126.671C227.979,116.023 228.641,112.427 231.611,110.289C233.544,109.017 235.851,108.439 238.155,108.651C240.459,111.106 243.244,113.057 246.336,114.384C248.169,115.166 250.093,115.716 252.062,116.023C252.636,128.235 250.972,140.449 247.154,152.062C244.184,160.973 239.562,174.881 229.975,176.634C228.622,176.869 227.238,176.869 225.885,176.634C208.338,174.242 198.129,144.141 196.435,138.957L196.615,84.742Z" style="fill:rgb(248,179,38);fill-rule:nonzero;"/>
        <path d="M142.445,192.197C163.629,197.011 185.448,198.394 207.07,196.292C208.484,196.422 209.905,196.138 211.16,195.473C219.226,190.943 213.459,169.893 211.978,143.052C211.312,130.763 211.586,118.441 212.796,106.194C211.651,102.164 207.585,89.812 196.435,84.898C193.016,83.407 189.196,83.35 181.711,83.26C164.123,83.047 154.462,82.932 148.989,88.993C145.946,92.368 145.717,95.931 144.899,105.375C144.899,105.375 144.375,111.182 140.809,143.052C137.684,171.007 131.32,185.234 138.355,190.558C139.557,191.443 140.965,192.007 142.445,192.197Z" style="fill:rgb(248,179,38);fill-rule:nonzero;"/>
        <path d="M167.804,85.709L185.645,111.919L187.437,87.347L167.804,85.709Z" style="fill:rgb(5,14,18);fill-rule:nonzero;"/>
        <path d="M164.532,84.079C161.778,83.87 159.009,84.147 156.351,84.898C146.69,87.658 141.553,96.226 138.355,101.279C132.866,109.962 124.816,121.38 112.177,136.5C107.731,133.696 103.614,130.399 99.907,126.671C93.363,120.118 89.829,113.787 85.182,114.385C83.949,114.581 82.807,115.153 81.91,116.023L74.548,134.042C73.515,135.779 72.951,137.755 72.912,139.776C72.912,142.978 74.4,147.967 90.09,158.615C101.592,166.404 107.343,170.368 112.177,170.082C115.728,169.877 122.411,168.353 135.901,150.424C145.315,137.85 153.018,124.078 158.806,109.47L164.532,84.079Z" style="fill:rgb(248,179,38);fill-rule:nonzero;"/>
        <path d="M182.987,198.552C154.707,198.552 142.658,192.475 142.085,192.156C141.879,192.047 141.724,191.861 141.655,191.638C141.586,191.415 141.608,191.174 141.717,190.968C141.825,190.761 142.011,190.607 142.234,190.538C142.456,190.468 142.697,190.491 142.903,190.599C143.091,190.698 162.111,200.24 207.855,195.424C208.074,195.421 208.285,195.5 208.449,195.645C208.612,195.79 208.715,195.992 208.738,196.209C208.76,196.427 208.701,196.645 208.571,196.821C208.441,196.997 208.25,197.118 208.035,197.16C199.716,198.065 191.355,198.529 182.987,198.552Z" style="fill:rgb(248,179,38);fill-rule:nonzero;"/>
        <path d="M131.999,156.264C131.832,156.265 131.669,156.218 131.529,156.128C131.389,156.039 131.277,155.911 131.207,155.76C131.137,155.609 131.112,155.441 131.135,155.276C131.158,155.112 131.228,154.957 131.336,154.83C131.483,154.642 146.879,136.418 156.433,114.761C156.475,114.649 156.539,114.546 156.622,114.459C156.704,114.372 156.804,114.303 156.915,114.257C157.025,114.21 157.144,114.187 157.264,114.188C157.383,114.189 157.502,114.215 157.611,114.264C157.721,114.313 157.819,114.384 157.9,114.472C157.981,114.561 158.043,114.665 158.082,114.778C158.121,114.892 158.137,115.012 158.127,115.132C158.118,115.251 158.085,115.368 158.029,115.474C148.335,137.368 132.817,155.772 132.669,155.961C132.589,156.06 132.486,156.139 132.37,156.192C132.253,156.245 132.126,156.269 131.999,156.264Z" style="fill:rgb(5,14,18);fill-rule:nonzero;"/>
        <path d="M216.968,165.429C216.793,165.431 216.622,165.38 216.476,165.284C216.331,165.188 216.217,165.05 216.15,164.888C216.068,164.692 207.822,144.502 209.45,115.154C209.463,114.922 209.568,114.704 209.741,114.549C209.915,114.394 210.143,114.314 210.375,114.327C210.607,114.34 210.824,114.445 210.979,114.619C211.134,114.792 211.214,115.02 211.201,115.253C209.565,144.207 217.68,164.02 217.745,164.217C217.789,164.323 217.812,164.436 217.812,164.551C217.812,164.666 217.789,164.779 217.745,164.885C217.701,164.991 217.636,165.087 217.555,165.168C217.474,165.248 217.377,165.312 217.271,165.355C217.175,165.399 217.073,165.424 216.968,165.429Z" style="fill:rgb(5,14,18);fill-rule:nonzero;"/>
        <path d="M112.177,148.843C111.945,148.843 111.723,148.751 111.559,148.586C111.394,148.422 111.302,148.199 111.302,147.966L111.302,136.499C111.302,136.267 111.394,136.044 111.559,135.88C111.723,135.715 111.945,135.623 112.177,135.623C112.41,135.623 112.632,135.715 112.796,135.88C112.961,136.044 113.053,136.267 113.053,136.499L113.053,147.966C113.053,148.199 112.961,148.422 112.796,148.586C112.632,148.751 112.41,148.843 112.177,148.843Z" style="fill:rgb(5,14,18);fill-rule:nonzero;"/>
        <path d="M224.249,157.034C224.039,157.033 223.837,156.957 223.678,156.821C223.52,156.684 223.414,156.495 223.381,156.289C221.745,145.493 223.381,141.988 223.471,141.84C223.525,141.737 223.599,141.646 223.687,141.572C223.776,141.498 223.879,141.442 223.989,141.407C224.1,141.372 224.216,141.36 224.332,141.37C224.447,141.381 224.559,141.414 224.662,141.467C224.764,141.521 224.855,141.595 224.93,141.684C225.004,141.773 225.06,141.875 225.094,141.986C225.129,142.097 225.141,142.213 225.131,142.329C225.121,142.444 225.088,142.556 225.034,142.659C225.034,142.733 223.57,146.042 225.116,156.067C225.149,156.297 225.09,156.531 224.952,156.718C224.814,156.905 224.609,157.03 224.379,157.067L224.249,157.034Z" style="fill:rgb(5,14,18);fill-rule:nonzero;"/>
        <path d="M171.133,67.845C170.953,70.589 170.667,73.529 170.233,76.633C169.775,79.91 169.211,82.965 168.597,85.758C169.129,86.389 173.056,90.836 178.962,90.394C181.697,90.152 184.272,88.998 186.275,87.118L185.269,68.942L171.133,67.845Z" style="fill:white;fill-rule:nonzero;"/>
        <path d="M178.16,91.221C172.516,91.221 168.728,87.126 168,86.307L167.747,86.004L167.829,85.619C168.483,82.637 169.023,79.59 169.465,76.56C169.865,73.677 170.168,70.736 170.356,67.828L170.414,67.009L186.046,68.197L187.11,87.437L186.84,87.691C184.704,89.699 181.961,90.935 179.044,91.205C178.733,91.205 178.438,91.221 178.16,91.221ZM169.465,85.488C170.561,86.683 174.037,89.927 178.913,89.583C181.343,89.367 183.639,88.37 185.457,86.741L184.516,69.638L171.894,68.697C171.698,71.383 171.412,74.086 171.076,76.748C170.61,79.68 170.086,82.637 169.44,85.529L169.465,85.488Z" style="fill:rgb(5,14,18);fill-rule:nonzero;"/>
        <path d="M196.992,53.831C194.439,63.553 182.177,72.203 173.825,69C173.483,68.872 173.149,68.721 172.827,68.549C171.622,67.926 170.536,67.094 169.62,66.092C168.399,64.749 167.382,63.234 166.601,61.596C166.045,60.481 163.869,56.108 165.113,51.152C165.43,49.9 165.938,48.704 166.618,47.606C169.931,42.216 177.015,39.161 182.979,39.022C184.304,39.022 192.746,38.792 196.198,44.469C198.472,48.155 197.368,52.381 196.992,53.831Z" style="fill:white;fill-rule:nonzero;"/>
        <path d="M198.071,44.763C199.015,50.169 199.29,55.671 198.889,61.145C198.251,69.63 196.288,73.586 194.799,75.888C193.572,77.788 191.879,80.278 189.073,80.802C188.116,80.983 186.815,80.974 181.711,78.345C176.606,75.716 174.16,74.455 172.712,72.612C170.617,69.748 169.574,66.247 169.759,62.701C168.988,60.934 168.773,58.974 169.146,57.082C170.724,49.932 182.324,44.763 198.071,44.763Z" style="fill:white;fill-rule:nonzero;"/>
        <path d="M187.085,58.016C187.216,59.073 186.848,59.99 186.267,60.064C185.686,60.137 185.097,59.335 184.966,58.278C184.836,57.222 185.195,56.312 185.784,56.239C186.373,56.165 186.954,56.959 187.085,58.016Z" style="fill:rgb(5,14,18);fill-rule:nonzero;"/>
        <path d="M191.854,67.01L191.102,67.01C190.895,66.995 190.701,66.902 190.56,66.75C190.419,66.598 190.34,66.398 190.341,66.19C190.353,65.982 190.445,65.786 190.597,65.643C190.749,65.5 190.95,65.42 191.159,65.42C193.351,65.502 193.981,65.199 194.128,65.093C193.996,64.855 193.846,64.628 193.679,64.413C193.38,64.016 193.106,63.6 192.861,63.168C191.936,61.409 191.582,59.405 191.846,57.435C191.827,57.311 191.836,57.185 191.873,57.066C191.909,56.947 191.973,56.838 192.058,56.747C192.143,56.656 192.248,56.586 192.365,56.541C192.481,56.497 192.606,56.48 192.73,56.492C192.854,56.503 192.974,56.543 193.08,56.608C193.187,56.673 193.277,56.762 193.344,56.867C193.411,56.972 193.453,57.091 193.467,57.215C193.481,57.339 193.467,57.464 193.425,57.582C193.205,59.22 193.491,60.886 194.243,62.357C194.463,62.728 194.703,63.086 194.963,63.43C195.446,64.094 195.945,64.773 195.658,65.584C195.306,66.567 194.128,67.01 191.854,67.01Z" style="fill:rgb(5,14,18);fill-rule:nonzero;"/>
        <path d="M182.39,59.032C182.275,59.031 182.162,59 182.062,58.942C181.989,58.899 181.926,58.841 181.875,58.773C181.824,58.705 181.787,58.628 181.767,58.546C181.746,58.463 181.742,58.378 181.755,58.294C181.768,58.21 181.797,58.129 181.842,58.057C182.281,57.347 182.879,56.75 183.589,56.312C184.299,55.874 185.101,55.608 185.932,55.534C187.197,55.468 188.44,55.881 189.417,56.689C189.482,56.742 189.536,56.808 189.576,56.882C189.615,56.956 189.64,57.037 189.648,57.121C189.657,57.205 189.649,57.289 189.624,57.37C189.6,57.45 189.56,57.525 189.507,57.59C189.454,57.656 189.389,57.711 189.315,57.752C189.241,57.792 189.16,57.817 189.076,57.826C188.992,57.834 188.907,57.826 188.826,57.801C188.746,57.776 188.671,57.735 188.607,57.68C187.874,57.083 186.949,56.774 186.005,56.812C185.385,56.87 184.786,57.069 184.255,57.394C183.723,57.719 183.273,58.162 182.938,58.688C182.885,58.788 182.806,58.873 182.71,58.933C182.614,58.994 182.503,59.028 182.39,59.032Z" style="fill:rgb(5,14,18);fill-rule:nonzero;"/>
        <path d="M186.619,33.296C184.68,32.731 178.07,30.896 171.076,34.115C167.727,35.685 164.838,38.092 162.689,41.105C160.54,44.118 159.202,47.635 158.806,51.316C158.429,55.597 159.313,59.896 161.348,63.68C163.383,67.465 166.481,70.57 170.258,72.612C171.349,67.97 172.439,63.329 173.53,58.687L179.256,52.954L196.435,39.03C193.67,36.358 190.303,34.391 186.619,33.296Z" style="fill:rgb(5,14,18);fill-rule:nonzero;"/>
        <path d="M196.435,56.836C196.566,57.893 196.198,58.81 195.617,58.884C195.036,58.958 194.447,58.163 194.317,57.107C194.186,56.05 194.554,55.133 195.135,55.059C195.715,54.985 196.288,55.78 196.435,56.836Z" style="fill:rgb(5,14,18);fill-rule:nonzero;"/>
        <path d="M188.394,81.662C187.249,81.662 185.49,81.187 181.351,79.05C176.213,76.404 173.637,75.077 172.09,73.103C169.908,70.14 168.806,66.518 168.966,62.84C168.19,60.965 167.985,58.902 168.377,56.91C170.07,49.203 182.005,44.002 198.071,43.969L198.734,43.969L198.849,44.624C199.804,50.095 200.079,55.663 199.667,61.202C199.012,69.917 196.942,74.004 195.445,76.322C194.325,78.059 192.435,80.975 189.204,81.581C188.937,81.634 188.666,81.661 188.394,81.662ZM197.392,45.558C182.668,45.73 171.403,50.472 169.915,57.254C169.586,58.993 169.786,60.79 170.487,62.414L170.544,62.562L170.544,62.725C170.361,66.085 171.344,69.404 173.326,72.12C174.667,73.824 177.138,75.102 182.062,77.641C187.29,80.327 188.312,80.139 188.918,80.024C191.29,79.574 192.787,77.567 194.128,75.454C195.47,73.341 197.466,69.434 198.088,61.087C198.473,55.91 198.242,50.705 197.401,45.582L197.392,45.558Z" style="fill:rgb(5,14,18);fill-rule:nonzero;"/>
        <path d="M193.04,57.868C192.981,57.876 192.92,57.876 192.86,57.868C192.778,57.844 192.7,57.803 192.633,57.749C192.566,57.694 192.51,57.627 192.469,57.551C192.428,57.475 192.402,57.391 192.394,57.305C192.385,57.219 192.394,57.132 192.419,57.049C192.601,56.473 192.92,55.949 193.347,55.521C193.774,55.094 194.297,54.775 194.873,54.592C195.544,54.415 196.252,54.438 196.91,54.657C197.568,54.877 198.148,55.284 198.579,55.829C198.632,55.894 198.672,55.969 198.696,56.049C198.721,56.13 198.729,56.214 198.72,56.298C198.712,56.382 198.687,56.463 198.648,56.537C198.608,56.611 198.554,56.677 198.489,56.73C198.355,56.837 198.184,56.887 198.014,56.869C197.844,56.85 197.688,56.765 197.581,56.632C197.308,56.278 196.939,56.012 196.517,55.866C196.095,55.721 195.64,55.702 195.208,55.813C194.839,55.932 194.503,56.138 194.229,56.413C193.954,56.688 193.749,57.024 193.629,57.393C193.595,57.525 193.519,57.642 193.413,57.728C193.307,57.813 193.176,57.862 193.04,57.868Z" style="fill:rgb(5,14,18);fill-rule:nonzero;"/>
        <path d="M173.792,58.606C173.792,58.606 169.595,56.148 168.066,57.606C166.536,59.064 165.473,64.405 170.888,66.313C176.303,68.221 173.792,58.606 173.792,58.606Z" style="fill:white;fill-rule:nonzero;"/>
        <path d="M171.526,63.995C171.48,64.003 171.433,64.003 171.387,63.995C170.647,63.876 169.981,63.478 169.524,62.882C169.068,62.287 168.857,61.539 168.933,60.793C169.018,60.439 169.18,60.109 169.408,59.826C169.635,59.542 169.923,59.313 170.25,59.155C170.666,58.935 171.124,58.81 171.593,58.787C172.063,58.765 172.531,58.845 172.966,59.024C173.111,59.097 173.223,59.221 173.28,59.373C173.337,59.525 173.335,59.694 173.275,59.844C173.214,59.995 173.099,60.117 172.952,60.187C172.805,60.256 172.638,60.268 172.483,60.219C172.223,60.109 171.941,60.057 171.658,60.068C171.375,60.08 171.098,60.154 170.847,60.285C170.689,60.361 170.547,60.468 170.432,60.6C170.317,60.733 170.23,60.888 170.176,61.055C170.174,61.464 170.319,61.859 170.585,62.17C170.851,62.48 171.22,62.683 171.624,62.742C171.789,62.765 171.937,62.852 172.039,62.983C172.141,63.114 172.188,63.279 172.17,63.445C172.152,63.61 172.07,63.761 171.942,63.867C171.815,63.973 171.651,64.025 171.485,64.012L171.526,63.995Z" style="fill:rgb(5,14,18);fill-rule:nonzero;"/>
        <path d="M207.782,36.737C207.611,36.736 207.445,36.681 207.307,36.581C207.143,36.452 207.034,36.264 207.004,36.057C206.973,35.85 207.023,35.639 207.144,35.467L209.499,32.281C209.629,32.119 209.814,32.011 210.019,31.981C210.224,31.951 210.433,31.999 210.604,32.117C210.767,32.245 210.876,32.431 210.908,32.636C210.94,32.841 210.892,33.051 210.776,33.223L208.42,36.417C208.344,36.515 208.248,36.595 208.137,36.65C208.027,36.706 207.905,36.735 207.782,36.737Z" style="fill:rgb(5,14,18);fill-rule:nonzero;"/>
        <path d="M210.653,41.88C210.483,41.86 210.324,41.788 210.198,41.673C210.071,41.558 209.984,41.407 209.948,41.24C209.912,41.073 209.929,40.898 209.997,40.742C210.064,40.585 210.179,40.453 210.326,40.365C210.62,40.234 210.931,40.07 211.258,39.89C211.942,39.503 212.586,39.051 213.18,38.538C213.252,38.436 213.346,38.351 213.455,38.29C213.564,38.23 213.686,38.195 213.811,38.189C213.936,38.182 214.06,38.205 214.175,38.254C214.29,38.304 214.391,38.379 214.473,38.474C214.554,38.569 214.612,38.681 214.644,38.802C214.675,38.923 214.678,39.05 214.653,39.172C214.628,39.295 214.575,39.41 214.498,39.509C214.422,39.607 214.323,39.687 214.211,39.742C213.537,40.322 212.808,40.835 212.035,41.274C211.675,41.479 211.315,41.659 210.98,41.815C210.877,41.859 210.765,41.881 210.653,41.88Z" style="fill:rgb(5,14,18);fill-rule:nonzero;"/>
        <path d="M72.805,8.069C72.635,8.068 72.469,8.013 72.331,7.913C72.167,7.783 72.058,7.596 72.028,7.389C71.997,7.181 72.047,6.971 72.167,6.799L74.523,3.613C74.652,3.451 74.838,3.343 75.043,3.313C75.248,3.283 75.457,3.331 75.628,3.449C75.791,3.577 75.9,3.763 75.932,3.968C75.963,4.173 75.916,4.383 75.799,4.555L73.444,7.749C73.368,7.847 73.272,7.927 73.161,7.982C73.051,8.038 72.929,8.067 72.805,8.069Z" style="fill:rgb(5,14,18);fill-rule:nonzero;"/>
        <path d="M75.677,13.213C75.507,13.193 75.348,13.12 75.222,13.006C75.095,12.891 75.008,12.739 74.972,12.572C74.936,12.405 74.953,12.231 75.02,12.074C75.088,11.917 75.203,11.785 75.349,11.697C75.644,11.566 75.955,11.402 76.282,11.222C76.966,10.836 77.609,10.383 78.204,9.871C78.276,9.768 78.37,9.683 78.479,9.623C78.588,9.562 78.71,9.527 78.835,9.521C78.959,9.515 79.084,9.537 79.199,9.587C79.313,9.636 79.415,9.711 79.497,9.806C79.578,9.901 79.636,10.013 79.668,10.134C79.699,10.256 79.702,10.382 79.677,10.505C79.651,10.627 79.598,10.742 79.522,10.841C79.445,10.94 79.347,11.02 79.235,11.075C78.561,11.655 77.832,12.168 77.059,12.606C76.699,12.811 76.339,12.991 76.004,13.147C75.9,13.191 75.789,13.213 75.677,13.213Z" style="fill:rgb(5,14,18);fill-rule:nonzero;"/>
        <path d="M216.068,228.17C215.961,228.175 215.853,228.159 215.752,228.122C215.651,228.085 215.558,228.029 215.479,227.956C215.4,227.884 215.335,227.796 215.29,227.699C215.244,227.601 215.218,227.496 215.213,227.388C215.209,227.28 215.225,227.173 215.262,227.072C215.298,226.971 215.354,226.877 215.427,226.798C215.499,226.718 215.587,226.654 215.684,226.608C215.782,226.563 215.887,226.537 215.995,226.532L219.946,226.188C220.163,226.17 220.378,226.238 220.544,226.379C220.711,226.519 220.815,226.72 220.833,226.937C220.852,227.155 220.783,227.37 220.643,227.537C220.502,227.704 220.302,227.808 220.085,227.826L216.134,228.17L216.068,228.17Z" style="fill:rgb(255,155,116);fill-rule:nonzero;"/>
        <path d="M217.582,234.731L217.467,234.731C216.585,234.608 215.716,234.4 214.874,234.109C214.481,233.97 214.113,233.822 213.769,233.675C213.571,233.586 213.416,233.421 213.338,233.218C213.261,233.014 213.267,232.788 213.356,232.589C213.445,232.391 213.61,232.235 213.813,232.158C214.016,232.08 214.242,232.087 214.44,232.176C214.735,232.307 215.062,232.438 215.406,232.561C216.147,232.818 216.911,233.001 217.688,233.11C217.795,233.117 217.9,233.145 217.997,233.192C218.093,233.24 218.18,233.306 218.251,233.387C218.322,233.468 218.376,233.562 218.411,233.664C218.446,233.766 218.46,233.874 218.453,233.982C218.446,234.089 218.418,234.195 218.37,234.291C218.323,234.388 218.256,234.474 218.176,234.545C218.095,234.617 218.001,234.671 217.899,234.706C217.797,234.74 217.689,234.755 217.582,234.748L217.582,234.731Z" style="fill:rgb(255,155,116);fill-rule:nonzero;"/>
        <path d="M193.376,71.31C193.219,71.31 193.067,71.258 192.942,71.162C192.866,71.109 192.787,71.06 192.705,71.015C192.123,70.78 191.477,70.76 190.881,70.957C190.228,71.116 189.553,71.161 188.885,71.088C187.982,70.944 187.144,70.53 186.48,69.901C186.402,69.84 186.338,69.764 186.291,69.677C186.244,69.591 186.216,69.495 186.207,69.397C186.198,69.299 186.21,69.2 186.241,69.107C186.272,69.013 186.322,68.927 186.387,68.854C186.453,68.78 186.533,68.721 186.622,68.679C186.711,68.638 186.808,68.615 186.906,68.613C187.005,68.611 187.103,68.628 187.194,68.665C187.285,68.702 187.368,68.757 187.437,68.828C187.889,69.257 188.459,69.542 189.073,69.647C189.586,69.694 190.103,69.655 190.603,69.532C191.515,69.258 192.495,69.328 193.359,69.729C193.509,69.806 193.651,69.896 193.785,69.999C193.904,70.09 193.992,70.216 194.036,70.359C194.081,70.502 194.079,70.655 194.033,70.798C193.986,70.94 193.896,71.064 193.775,71.153C193.654,71.242 193.509,71.291 193.359,71.293L193.376,71.31Z" style="fill:rgb(5,14,18);fill-rule:nonzero;"/>
        <path d="M190.145,74.07L189.965,74.07C189.017,73.994 188.136,73.55 187.511,72.833C187.454,72.77 187.411,72.696 187.383,72.616C187.355,72.536 187.344,72.451 187.349,72.367C187.354,72.282 187.376,72.199 187.414,72.123C187.452,72.047 187.504,71.98 187.568,71.924C187.632,71.867 187.706,71.824 187.787,71.796C187.867,71.768 187.953,71.756 188.038,71.762C188.123,71.767 188.206,71.789 188.283,71.827C188.359,71.865 188.428,71.917 188.484,71.981C188.883,72.451 189.45,72.745 190.063,72.8C190.428,72.817 190.791,72.741 191.118,72.579C191.269,72.519 191.436,72.518 191.588,72.575C191.739,72.633 191.864,72.745 191.936,72.891C191.973,72.967 191.995,73.05 192,73.134C192.005,73.219 191.993,73.304 191.965,73.384C191.937,73.464 191.893,73.538 191.836,73.601C191.779,73.664 191.71,73.715 191.633,73.751C191.167,73.966 190.658,74.076 190.145,74.07Z" style="fill:rgb(5,14,18);fill-rule:nonzero;"/>
        <path d="M200.526,43.691C200.72,45.32 200.436,46.971 199.707,48.441C198.48,51.111 195.617,54.355 189.073,56.632C189.335,56.091 189.613,55.551 189.891,54.994C190.954,52.938 192.051,51.013 193.163,49.195C192.182,50.12 190.791,51.406 189.073,52.897C187.788,54.084 186.421,55.179 184.983,56.173C183.372,57.351 181.554,58.216 179.625,58.721C177.619,59.19 175.531,59.179 173.53,58.688C174.348,57.328 175.6,55.412 177.113,53.077C183.15,43.863 184.819,42.552 185.801,41.84C190.3,38.563 193.981,38.367 196.533,39.292C199.086,40.218 200.526,42.306 200.526,43.691Z" style="fill:rgb(5,14,18);fill-rule:nonzero;"/>
        <path d="M174.348,35.754C174.348,35.754 175.984,21.01 164.532,17.734C153.079,14.458 142.019,31.06 164.728,40.783C164.728,40.783 171.894,43.125 174.348,35.754Z" style="fill:rgb(5,14,18);fill-rule:nonzero;"/>
        <path d="M58.187,404.492L58.113,404.492C57.856,404.471 57.617,404.35 57.448,404.153C57.28,403.957 57.195,403.702 57.214,403.444C61.533,348.566 63.758,292.869 63.758,237.917C63.758,197.037 62.58,155.617 60.224,114.794C60.216,114.666 60.234,114.538 60.276,114.417C60.318,114.295 60.383,114.184 60.468,114.088C60.553,113.992 60.656,113.914 60.772,113.858C60.887,113.802 61.012,113.769 61.14,113.762C61.398,113.749 61.651,113.837 61.843,114.009C62.036,114.181 62.154,114.422 62.171,114.679C64.535,155.535 65.721,197.005 65.705,237.917C65.705,292.959 63.488,348.705 59.16,403.591C59.142,403.837 59.031,404.066 58.85,404.233C58.67,404.401 58.433,404.493 58.187,404.492Z" style="fill:rgb(5,14,18);fill-rule:nonzero;"/>
        <g transform="matrix(1.10168,0,0,1.01531,-30.3618,-3.42395)">
            <path d="M282.727,58.492L390.439,58.492" style="fill:none;stroke:black;stroke-width:1.89px;"/>
        </g>
        <g transform="matrix(1.10168,0,0,1.01531,-30.3618,16.8822)">
            <path d="M282.727,58.492L390.439,58.492" style="fill:none;stroke:black;stroke-width:1.89px;"/>
        </g>
        <g transform="matrix(1.10168,0,0,1.01531,-30.3618,37.1883)">
            <path d="M282.727,58.492L390.439,58.492" style="fill:none;stroke:black;stroke-width:1.89px;"/>
        </g>
        <g transform="matrix(1.10168,0,0,1.01531,-30.3618,57.4945)">
            <path d="M282.727,58.492L390.439,58.492" style="fill:none;stroke:black;stroke-width:1.89px;"/>
        </g>
        <g transform="matrix(1.10168,0,0,1.01531,-30.3618,77.8006)">
            <path d="M282.727,58.492L390.439,58.492" style="fill:none;stroke:black;stroke-width:1.89px;"/>
        </g>
        <g transform="matrix(1.10168,0,0,1.01531,-30.3618,98.1068)">
            <path d="M282.727,58.492L390.439,58.492" style="fill:none;stroke:black;stroke-width:1.89px;"/>
        </g>
        <g transform="matrix(1.10168,0,0,1.01531,-30.3618,118.413)">
            <path d="M282.727,58.492L390.439,58.492" style="fill:none;stroke:black;stroke-width:1.89px;"/>
        </g>
        <g transform="matrix(1.10168,0,0,1.01531,-30.3618,138.719)">
            <path d="M282.727,58.492L390.439,58.492" style="fill:none;stroke:black;stroke-width:1.89px;"/>
        </g>
        <g transform="matrix(1.10168,0,0,1.01531,-30.3618,159.025)">
            <path d="M282.727,58.492L390.439,58.492" style="fill:none;stroke:black;stroke-width:1.89px;"/>
        </g>
        <g>
            <path d="M310.445,218.546L310.445,342.079L310.143,342.079L280.693,302.764L250.729,341.686L250.729,219.218L310.445,218.546Z" style="fill:rgb(255,155,116);fill-rule:nonzero;"/>
            <path d="M280.579,266.716C303.846,266.716 322.708,247.83 322.708,224.533C322.708,201.237 303.846,182.351 280.579,182.351C257.311,182.351 238.45,201.237 238.45,224.533C238.45,247.83 257.311,266.716 280.579,266.716Z" style="fill:white;fill-rule:nonzero;"/>
            <path d="M280.587,259.508C273.678,259.51 266.923,257.46 261.178,253.617C255.432,249.775 250.954,244.313 248.309,237.921C245.664,231.53 244.972,224.498 246.319,217.712C247.667,210.927 250.994,204.695 255.879,199.803C260.765,194.911 266.99,191.58 273.766,190.231C280.543,188.881 287.567,189.575 293.95,192.223C300.333,194.871 305.788,199.355 309.625,205.108C313.463,210.861 315.51,217.624 315.509,224.542C315.498,233.812 311.815,242.7 305.268,249.255C298.722,255.81 289.845,259.497 280.587,259.508ZM280.587,191.32C274.024,191.318 267.608,193.266 262.151,196.915C256.694,200.564 252.44,205.752 249.927,211.823C247.415,217.893 246.756,224.573 248.036,231.018C249.315,237.463 252.474,243.383 257.114,248.03C261.754,252.677 267.666,255.842 274.103,257.124C280.539,258.407 287.211,257.75 293.274,255.235C299.337,252.721 304.52,248.463 308.166,243C311.812,237.536 313.758,231.113 313.758,224.542C313.75,215.735 310.252,207.291 304.034,201.063C297.815,194.835 289.383,191.331 280.587,191.32Z" style="fill:rgb(5,14,18);fill-rule:nonzero;"/>
            <path d="M280.587,267.593C272.081,267.594 263.765,265.07 256.692,260.339C249.619,255.609 244.105,248.884 240.85,241.015C237.594,233.147 236.741,224.489 238.4,216.136C240.059,207.782 244.155,200.109 250.17,194.087C256.185,188.064 263.848,183.963 272.191,182.302C280.534,180.641 289.181,181.494 297.04,184.754C304.898,188.014 311.614,193.535 316.339,200.617C321.064,207.699 323.585,216.025 323.583,224.542C323.57,235.956 319.036,246.898 310.975,254.969C302.915,263.04 291.986,267.58 280.587,267.593ZM280.587,183.228C272.426,183.226 264.447,185.648 257.661,190.187C250.874,194.725 245.584,201.177 242.46,208.726C239.336,216.275 238.518,224.582 240.109,232.597C241.7,240.612 245.629,247.974 251.399,253.753C257.17,259.531 264.522,263.467 272.526,265.062C280.53,266.656 288.827,265.839 296.367,262.712C303.907,259.585 310.352,254.29 314.886,247.496C319.42,240.701 321.841,232.714 321.841,224.542C321.83,213.59 317.48,203.089 309.746,195.343C302.012,187.598 291.525,183.241 280.587,183.228Z" style="fill:rgb(5,14,18);fill-rule:nonzero;"/>
            <g transform="matrix(0.457673,0,0,0.457673,129.953,120.551)">
                <text x="261.055px" y="239.922px" style="font-family:'ArialMT', 'Arial', sans-serif;font-size:35.548px;">DESIGN</text>
            </g>
        </g>
    </g>
</svg>
