<?xml version="1.0" encoding="UTF-8" standalone="no"?>
<!DOCTYPE svg PUBLIC "-//W3C//DTD SVG 1.1//EN" "http://www.w3.org/Graphics/SVG/1.1/DTD/svg11.dtd">
<svg width="100%" height="100%" viewBox="0 0 1024 1024" version="1.1" xmlns="http://www.w3.org/2000/svg" xmlns:xlink="http://www.w3.org/1999/xlink" xml:space="preserve" xmlns:serif="http://www.serif.com/" style="fill-rule:evenodd;clip-rule:evenodd;stroke-linejoin:round;stroke-miterlimit:2;">
    <path d="M507.37,570.43C589.69,570.43 656.68,637.43 656.68,719.74L684.19,719.74C684.19,622.25 604.87,542.92 507.37,542.92C409.87,542.92 330.54,622.25 330.54,719.74L358.05,719.74C358.05,637.41 425,570.43 507.37,570.43Z" style="fill:rgb(0,3,51);fill-rule:nonzero;"/>
    <path d="M330.54,719.74C330.54,727.283 336.747,733.49 344.29,733.49C351.833,733.49 358.04,727.283 358.04,719.74C358.04,712.197 351.833,705.99 344.29,705.99C336.747,705.99 330.54,712.197 330.54,719.74Z" style="fill:rgb(0,3,51);fill-rule:nonzero;"/>
    <path d="M656.68,719.74C656.68,727.283 662.887,733.49 670.43,733.49C677.973,733.49 684.18,727.283 684.18,719.74C684.18,712.197 677.973,705.99 670.43,705.99C662.887,705.99 656.68,712.197 656.68,719.74Z" style="fill:rgb(0,3,51);fill-rule:nonzero;"/>
    <path d="M454.928,525.547C475.323,545.941 503.013,557.411 531.854,557.411C591.535,557.411 640.644,508.301 640.644,448.621C640.644,419.779 629.175,392.089 608.781,371.694C588.386,351.3 560.696,339.831 531.854,339.831C472.174,339.831 423.064,388.94 423.064,448.621C423.064,477.462 434.534,505.153 454.928,525.547Z" style="fill:rgb(186,212,255);fill-rule:nonzero;"/>
    <path d="M507.36,103C279.84,103 94.73,288.12 94.73,515.66C94.907,539.337 97.075,562.957 101.21,586.27C101.21,586.41 101.46,586.35 101.51,586.47C103.087,592.345 108.427,596.478 114.51,596.53C122.055,596.525 128.26,590.315 128.26,582.77C128.195,582.325 128.105,581.885 127.99,581.45L128.23,581.34C124.361,559.665 122.354,537.698 122.23,515.68C122.23,302.98 294.66,130.55 507.35,130.55C720.04,130.55 892.49,303 892.49,515.68C892.49,728.36 720.06,900.8 507.36,900.8C365.22,900.8 241.36,823.58 174.67,709.01C174.67,708.94 174.58,708.9 174.56,708.83C174.38,708.53 174.18,708.24 174.01,707.94C171.694,703.451 167.062,700.605 162.01,700.57C154.469,700.575 148.265,706.779 148.26,714.32C148.323,717.153 149.283,719.895 151,722.15L150.77,722.29C222.3,845.29 355.18,928.29 507.38,928.29C734.89,928.29 920,743.2 920,515.66C920,288.12 734.89,103 507.36,103ZM507.36,570.42C432.21,570.42 371.07,509.28 371.07,434.12C371.07,358.96 432.21,297.82 507.36,297.82C582.51,297.82 643.66,358.97 643.66,434.12C643.66,509.27 582.52,570.42 507.36,570.42ZM507.36,325.33C447.674,325.33 398.56,374.444 398.56,434.13C398.56,493.816 447.674,542.93 507.36,542.93C567.046,542.93 616.16,493.816 616.16,434.13C616.16,434.127 616.16,434.123 616.16,434.12C616.089,374.463 567.017,325.396 507.36,325.33Z" style="fill:rgb(0,3,51);fill-rule:nonzero;"/>
</svg>
